<svg xmlns:dc="http://purl.org/dc/elements/1.1/" xmlns:cc="http://creativecommons.org/ns#" xmlns:rdf="http://www.w3.org/1999/02/22-rdf-syntax-ns#" xmlns:svg="http://www.w3.org/2000/svg" xmlns="http://www.w3.org/2000/svg" xmlns:sodipodi="http://sodipodi.sourceforge.net/DTD/sodipodi-0.dtd" xmlns:inkscape="http://www.inkscape.org/namespaces/inkscape" version="1.1" x="0px" y="0px" viewBox="0 0 100 125"><g transform="translate(0,-952.36218)"><path style="text-indent:0;text-transform:none;direction:ltr;block-progression:tb;baseline-shift:baseline;color:#000000;enable-background:accumulate;" d="m 3.9578378,980.36217 c -0.42347,0.08 -0.76965,0.4713 -0.80269,0.9062 -1.24386,12.2336 -1.81067,23.09143 0,33.93693 -0.0507,0.5408 0.31635,0.7772 0.61748,1.0944 2.66002,2.0373 6.2478302,2.063 9.3544202,2.0626 0.47694,3.3876 3.34706,5.9999 6.82286,5.9999 3.47579,0 6.34593,-2.6123 6.82286,-5.9999 11.52713,0.01 23.82575,0 35.75053,0 0.47694,3.3876 3.34706,5.9999 6.82286,5.9999 3.47579,0 6.34592,-2.6123 6.82285,-5.9999 3.82465,-6e-4 7.12208,0 11.08329,0 2.6055,-0.2981 4.77336,-2.4632 4.81613,-4.8749 9.9e-4,-9.0635 0.011,-15.35763 -0.74094,-20.37473 -0.6388,-4.263 -1.88499,-7.6115 -4.10607,-10.7498 l 3.88996,0 c 1.7041,0.3097 2.4651,1.4562 2.9329,2.9373 0,1.6875 0,3.375 0,5.0625 -0.005,1.0503 0.93819,2.0094 1.97585,2.0094 1.03766,0 1.98072,-0.9591 1.97585,-2.0094 l 0,-4.9999 c 0.0757,-0.9829 -0.92423,-1.9829 -2.43894,-2.0002 -0.91372,-1.6423 -2.79216,-2.9691 -4.44566,-3 l -5.89668,0 c -27.83101,0.01 -56.48339,3e-4 -81.2568602,-4e-4 z m 1.11142,2 c 26.5401902,-0.01 53.0803802,0.013 79.6205702,0 2.64152,3.2604 4.00213,6.4545 4.69265,11.0622 0.71423,4.7664 0.71106,10.99883 0.71007,20.06233 -0.31503,1.731 -1.4393,2.4616 -2.96377,2.8749 0,-5.9953 0,-12.0161 0,-17.99973 0,-6.1112 -1.05798,-9.4031 -3.11814,-12.5311 -0.17623,-0.2844 -0.50188,-0.4675 -0.83357,-0.4687 l -4.93962,0 c -0.51727,10e-5 -0.98788,0.4764 -0.98792,1 -6e-4,6.6708 0,13.3326 0,20.00003 l -34.57738,0 0,-4.9999 c -4e-5,-0.5236 -0.47065,-0.9999 -0.98792,-1 l -7.9034,0 c -0.51727,0 -0.98789,0.4764 -0.98793,1 l 0,4.9999 -26.6739702,0 0,2 26.6739702,0 0,4.9999 c 4e-5,0.5236 0.47066,1 0.98793,1 l 7.9034,0 c 0.51727,-10e-5 0.98788,-0.4764 0.98792,-1 l 0,-4.9999 34.57738,0 0,7.9998 c -0.36397,0 -0.70765,-10e-5 -1.08055,0 -0.4951,-3.3698 -3.36169,-5.9999 -6.82285,-5.9999 -3.46117,0 -6.32775,2.6301 -6.82286,5.9999 -11.92493,0 -24.22424,0.01 -35.75053,0 -0.49511,-3.3698 -3.3617,-5.9999 -6.82286,-5.9999 -3.46117,0 -6.32775,2.6301 -6.82286,5.9999 -2.64829,-0.211 -6.1695702,-0.037 -8.0577602,-1.5312 -1.41587,-11.4944 -0.92506,-22.99993 0,-32.46853 z m 2.9329,2.9999 c -0.41061,0.043 -0.77625,0.373 -0.86443,0.7812 -1.02551,4.1521 -1.0188,8.2187 -1.0188,12.2186 4e-5,0.5236 0.47065,0.9999 0.98792,1 l 9.8792602,0 c 0.51727,-10e-5 0.98788,-0.4764 0.98792,-1 l 0,-11.9998 c -4e-5,-0.5236 -0.47065,-0.9999 -0.98792,-1 -3.12699,0 -6.30275,0 -8.9839502,0 z m 11.8551002,0 c -0.48566,0.046 -0.89742,0.5062 -0.89531,1 l 0,11.9998 c 4e-5,0.5236 0.47066,1 0.98793,1 l 9.87925,0 c 0.51727,-10e-5 0.98788,-0.4764 0.98792,-1 l 0,-11.9998 c -4e-5,-0.5236 -0.47065,-0.9999 -0.98792,-1 -3.47115,0 -6.99623,0 -9.97187,0 z m 12.84302,0 c -0.48565,0.046 -0.89741,0.5062 -0.8953,1 l 0,11.9998 c 4e-5,0.5236 0.47065,0.9999 0.98792,1 l 9.87925,0 c 0.51727,0 0.98789,-0.4764 0.98793,-1 l 0,-11.9998 c -4e-5,-0.5236 -0.47066,-1 -0.98793,-1 -3.47114,0 -6.99622,0 -9.97187,0 z m 12.84302,0 c -0.48565,0.046 -0.89741,0.5062 -0.8953,1 l 0,11.9998 c 4e-5,0.5236 0.47066,1 0.98793,1 l 9.87925,0 c 0.51727,-10e-5 0.98788,-0.4764 0.98792,-1 l 0,-11.9998 c -4e-5,-0.5236 -0.47065,-0.9999 -0.98792,-1 -3.47114,0 -6.99623,0 -9.97188,0 z m 12.84303,0 c -0.48565,0.046 -0.89741,0.5062 -0.8953,1 l 0,11.9998 c 4e-5,0.5236 0.47065,0.9999 0.98792,1 l 16.79473,0 c 0.51726,0 0.98789,-0.4764 0.98793,-1 l 0,-11.9998 c -4e-5,-0.5236 -0.47067,-1 -0.98793,-1 -5.88016,0 -11.85043,0 -16.88735,0 z m -49.4271202,2 7.0389702,0 0,9.9998 -7.8725302,0 c 0.007,-3.393 0.12433,-6.717 0.83356,-9.9998 z m 11.9785902,0 7.90341,0 0,9.9998 -7.90341,0 z m 12.84303,0 7.9034,0 0,9.9998 -7.9034,0 z m 12.84302,0 7.9034,0 0,9.9998 -7.9034,0 z m 12.84302,0 14.81888,0 0,9.9998 -14.81888,0 z m 19.75851,0 3.33425,0 c 1.57903,2.5147 2.384,5.22 2.50068,9.9998 l -5.83493,0 z m 0,11.9998 5.92754,0 0,16.99973 c -2.00693,-10e-5 -3.98917,-10e-5 -5.92754,0 z m -44.45663,3.00003 5.92756,0 0,9.9998 -5.92756,0 z m -14.81887,9.9998 c 2.73983,0 4.93962,2.2578 4.93962,5.0311 0,2.7733 -2.19979,4.9687 -4.93962,4.9687 -2.73983,0 -4.93963,-2.1954 -4.93963,-4.9687 0,-2.7733 2.1998,-5.0311 4.93963,-5.0311 z m 49.39625,0 c 2.73983,0 4.93962,2.2578 4.93962,5.0311 0,2.7733 -2.19979,4.9687 -4.93962,4.9687 -2.73983,0 -4.93962,-2.1954 -4.93962,-4.9687 0,-2.7733 2.19979,-5.0311 4.93962,-5.0311 z" fill="#000000" fill-opacity="1" stroke="none" marker="none" visibility="visible" display="inline" overflow="visible"/></g><text x="0" y="115" fill="#000000" font-size="5px" font-weight="bold" font-family="'Helvetica Neue', Helvetica, Arial-Unicode, Arial, Sans-serif">Created by AFY Studio</text><text x="0" y="120" fill="#000000" font-size="5px" font-weight="bold" font-family="'Helvetica Neue', Helvetica, Arial-Unicode, Arial, Sans-serif">from the Noun Project</text></svg>