<svg width="43" height="44" viewBox="0 0 43 44" fill="none" xmlns="http://www.w3.org/2000/svg">
<path d="M10.6963 32.6963C16.6043 38.6037 26.1187 38.6673 31.9474 32.8385C37.7768 27.0092 37.7133 17.4948 31.8055 11.5871C25.8985 5.68004 16.3838 5.61683 10.5541 11.4459C4.72542 17.2746 4.78956 26.7889 10.6963 32.6963ZM28.8616 16.0017C28.8652 16.0258 28.8692 16.0496 28.8709 16.0743C28.8756 16.1188 28.8781 16.1654 28.8781 16.2132C28.8787 16.2145 28.8784 16.2167 28.8784 16.2179L28.9496 26.8364C28.9559 27.7708 28.2042 28.5225 27.2698 28.5162C26.3364 28.5097 25.5743 27.7476 25.568 26.8145L25.525 20.2752L16.5177 29.2825C15.862 29.9382 14.791 29.9313 14.1262 29.2665C13.4619 28.6023 13.4551 27.5313 14.1108 26.8756L23.1181 17.8683L16.5791 17.8243C15.6454 17.8187 14.883 17.0563 14.8767 16.1219C14.8708 15.1891 15.6225 14.4374 16.5553 14.4434L27.1763 14.5146C27.2273 14.5146 27.2742 14.5174 27.3211 14.5227C27.3409 14.5238 27.3609 14.5264 27.3803 14.5291C27.3953 14.5311 27.4125 14.5334 27.4269 14.5372C27.7734 14.5905 28.1063 14.7494 28.3754 15.0173C28.6436 15.2867 28.8031 15.6208 28.8567 15.9676C28.859 15.9786 28.86 15.9902 28.8616 16.0017Z" fill="#47B1FF"/>
</svg>
