<svg xmlns="http://www.w3.org/2000/svg" xmlns:xlink="http://www.w3.org/1999/xlink" version="1.1" x="0px" y="0px" viewBox="0 0 32 40" style="enable-background:new 0 0 32 32;" xml:space="preserve"><g><path d="M16,1.726c-1.68,0-3.047,1.367-3.047,3.047v0.755c-3.11,1.222-5.322,4.247-5.322,7.784   c-0.003,1.332-0.012,3.526-0.023,3.744c-0.112,1.709-0.75,3.472-1.844,5.096l-1.321,1.96c-0.376,0.559-0.414,1.276-0.097,1.871   c0.316,0.595,0.932,0.964,1.605,0.964H11.8c0.454,1.904,2.159,3.328,4.2,3.328s3.746-1.424,4.2-3.328h5.848   c0.674,0,1.289-0.37,1.605-0.964c0.317-0.595,0.28-1.312-0.097-1.871l-1.321-1.959c-1.094-1.625-1.732-3.387-1.844-5.091   c-0.011-0.223-0.02-2.417-0.023-3.749c-0.001-3.538-2.212-6.562-5.322-7.784V4.773C19.047,3.093,17.68,1.726,16,1.726z    M14.953,4.773c0-0.577,0.47-1.047,1.047-1.047s1.047,0.47,1.047,1.047v0.245C16.703,4.975,16.355,4.945,16,4.945   s-0.703,0.03-1.047,0.073V4.773z M16,28.274c-0.924,0-1.718-0.546-2.093-1.328h4.187C17.718,27.728,16.924,28.274,16,28.274z    M22.369,13.314c0,0.001,0,0.001,0,0.002c0.002,1.079,0.01,3.616,0.027,3.87c0.136,2.062,0.89,4.166,2.182,6.083l1.13,1.677H6.292   l1.13-1.677c1.292-1.917,2.046-4.021,2.182-6.082c0.017-0.254,0.024-2.792,0.027-3.873c0-3.512,2.857-6.369,6.369-6.369   S22.369,9.802,22.369,13.314z"/></g></svg>