<svg width="24" height="24" viewBox="0 0 24 24" fill="none" xmlns="http://www.w3.org/2000/svg">
<path d="M4.5 9C2.846 9 1.5 7.654 1.5 6C1.5 4.346 2.846 3 4.5 3C6.154 3 7.5 4.346 7.5 6C7.5 7.654 6.154 9 4.5 9ZM4.5 4.5C3.673 4.5 3 5.173 3 6C3 6.827 3.673 7.5 4.5 7.5C5.327 7.5 6 6.827 6 6C6 5.173 5.327 4.5 4.5 4.5Z" fill="#FF4778"/>
<path d="M3 22.5C2.623 22.5 2.303 22.218 2.256 21.843L1.588 16.5H0.75C0.336 16.5 0 16.164 0 15.75V13.5C0 11.019 2.019 9 4.5 9C4.914 9 5.25 9.336 5.25 9.75C5.25 10.164 4.914 10.5 4.5 10.5C2.846 10.5 1.5 11.846 1.5 13.5V15H2.25C2.627 15 2.947 15.282 2.994 15.657L3.662 21H6C6.414 21 6.75 21.336 6.75 21.75C6.75 22.164 6.414 22.5 6 22.5H3Z" fill="#FF4778"/>
<path d="M19.5 9C17.846 9 16.5 7.654 16.5 6C16.5 4.346 17.846 3 19.5 3C21.154 3 22.5 4.346 22.5 6C22.5 7.654 21.154 9 19.5 9ZM19.5 4.5C18.673 4.5 18 5.173 18 6C18 6.827 18.673 7.5 19.5 7.5C20.327 7.5 21 6.827 21 6C21 5.173 20.327 4.5 19.5 4.5Z" fill="#FF4778"/>
<path d="M18 22.5C17.586 22.5 17.25 22.164 17.25 21.75C17.25 21.336 17.586 21 18 21H20.338L21.006 15.657C21.053 15.282 21.373 15 21.75 15H22.5V13.5C22.5 11.846 21.154 10.5 19.5 10.5C19.086 10.5 18.75 10.164 18.75 9.75C18.75 9.336 19.086 9 19.5 9C21.981 9 24 11.019 24 13.5V15.75C24 16.164 23.664 16.5 23.25 16.5H22.412L21.744 21.843C21.697 22.218 21.377 22.5 21 22.5H18Z" fill="#FF4778"/>
<path d="M12 7.5C9.932 7.5 8.25 5.818 8.25 3.75C8.25 1.682 9.932 0 12 0C14.068 0 15.75 1.682 15.75 3.75C15.75 5.818 14.068 7.5 12 7.5ZM12 1.5C10.759 1.5 9.75 2.509 9.75 3.75C9.75 4.991 10.759 6 12 6C13.241 6 14.25 4.991 14.25 3.75C14.25 2.509 13.241 1.5 12 1.5Z" fill="#FF4778"/>
<path d="M9.75 24C9.363 24 9.042 23.71 9.004 23.325L8.321 16.5H6.75C6.336 16.5 6 16.164 6 15.75V13.5C6 10.192 8.692 7.5 12 7.5C15.308 7.5 18 10.192 18 13.5V15.75C18 16.164 17.664 16.5 17.25 16.5H15.679L14.996 23.325C14.958 23.709 14.637 24 14.25 24H9.75ZM13.571 22.5L14.254 15.675C14.292 15.291 14.613 15 15 15H16.5V13.5C16.5 11.019 14.481 9 12 9C9.519 9 7.5 11.019 7.5 13.5V15H9C9.387 15 9.708 15.29 9.746 15.675L10.428 22.5H13.571Z" fill="#FF4778"/>
</svg>
