<svg width="61" height="61" viewBox="0 0 61 61" fill="none" xmlns="http://www.w3.org/2000/svg">
<path fill-rule="evenodd" clip-rule="evenodd" d="M31.8727 29.885C31.8727 36.2464 31.8746 42.6079 31.8718 48.9696C31.8706 52.163 30.7924 52.7859 27.9179 51.2597C22.569 48.4188 17.2382 45.5431 11.8554 42.7683C10.9064 42.2791 9.74955 42.0457 8.67169 41.9828C6.58791 41.8615 4.49128 41.9807 2.40138 41.933C0.609339 41.8918 0.0160736 41.2808 0.0117879 39.5052C-0.00413049 33.0927 -0.00352258 26.6803 0.0111713 20.2675C0.0151509 18.4831 0.741277 17.7703 2.50026 17.7107C2.80607 17.7007 3.11679 17.6744 3.4174 17.7138C8.33526 18.3599 12.6669 16.9565 16.8421 14.3719C20.5125 12.0996 24.4499 10.2562 28.2755 8.23472C30.6593 6.97513 31.8678 7.68359 31.8706 10.3424C31.877 16.8566 31.8727 23.3708 31.8727 29.885ZM28.0107 46.9851C28.0107 35.4509 28.0107 24.1984 28.0107 12.9446C27.834 12.9345 27.7189 12.8909 27.647 12.9287C22.9235 15.4167 18.1958 17.8974 13.4992 20.4349C13.1634 20.6164 12.8754 21.2207 12.8726 21.6306C12.8316 27.1211 12.8346 32.6122 12.8683 38.1029C12.8705 38.4784 13.1016 39.039 13.397 39.1991C18.1765 41.7848 22.9835 44.3193 28.0107 46.9851ZM3.95893 21.656C3.95893 27.2143 3.95893 32.6198 3.95893 38.0455C5.64046 38.0455 7.19556 38.0455 8.80546 38.0455C8.80546 32.5532 8.80546 27.1428 8.80546 21.656C7.17168 21.656 5.6175 21.656 3.95893 21.656Z" fill="#47B1FF"/>
<path fill-rule="evenodd" clip-rule="evenodd" d="M47.4077 28.3254C44.8947 29.4771 42.5924 30.5402 40.2824 31.5875C38.9039 32.2123 37.7899 31.9233 37.3457 30.788C36.8158 29.4322 37.5915 28.67 38.7077 28.15C41.9795 26.6271 45.2379 25.0721 48.5569 23.6579C49.2453 23.3646 50.4606 23.3054 50.9113 23.7129C51.4439 24.1944 51.6383 25.3162 51.5789 26.1313C51.4362 28.0791 51.0588 30.0099 50.7306 32.2562C53.1138 31.0972 55.1994 30.0722 57.2961 29.0699C57.8437 28.8084 58.4642 28.3758 58.9834 28.4561C59.6924 28.5658 60.6496 28.9379 60.9187 29.4835C61.1777 30.0081 60.7604 30.9203 60.506 31.6132C60.4096 31.8756 59.9514 32.0296 59.6342 32.1842C56.2996 33.8106 52.9825 35.4759 49.6038 37.0056C48.9211 37.3147 47.7683 37.4156 47.2537 37.0386C46.7314 36.6564 46.4914 35.5465 46.5478 34.7867C46.7027 32.7194 47.0792 30.6686 47.4077 28.3254Z" fill="#47B1FF"/>
<path fill-rule="evenodd" clip-rule="evenodd" d="M47.9679 54.0522C50.5687 55.1636 52.992 56.1907 55.4079 57.2349C56.4304 57.677 57.1495 58.3616 56.8531 59.5879C56.5792 60.7198 55.3602 61.3124 54.1877 60.8322C50.8926 59.4828 47.6067 58.1092 44.3453 56.6813C42.7801 55.9958 42.5156 54.7383 43.6057 53.3462C44.8265 51.7869 46.1186 50.2829 47.524 48.5798C44.7787 47.6342 42.17 46.7272 39.5551 45.8376C37.3911 45.1013 36.6689 44.2856 37.1 43.0163C37.5353 41.7347 38.6364 41.4933 40.7548 42.2183C44.1246 43.3707 47.5014 44.5032 50.8605 45.6867C52.9231 46.4141 53.243 47.6599 51.8477 49.378C50.6291 50.878 49.3801 52.353 47.9679 54.0522Z" fill="#47B1FF"/>
<path fill-rule="evenodd" clip-rule="evenodd" d="M47.9654 6.91819C49.3359 8.5682 50.5766 10.0432 51.7962 11.5362C53.2635 13.3322 52.9491 14.5692 50.7937 15.3195C47.1891 16.5736 43.5658 17.773 39.9582 19.0191C38.7288 19.4437 37.7161 19.2879 37.1455 18.0274C36.6505 16.9328 37.2634 15.9399 38.7597 15.413C41.6271 14.4033 44.5105 13.4394 47.5295 12.4077C46.2263 10.832 45.0165 9.39489 43.8358 7.93399C42.3989 6.15689 42.6484 5.04975 44.7043 4.15982C47.7389 2.84617 50.7827 1.55421 53.8322 0.275994C55.2104 -0.302014 56.3452 0.0404476 56.7701 1.18516C57.2798 2.55778 56.4603 3.29098 55.3329 3.77948C52.9574 4.80902 50.5693 5.81105 47.9654 6.91819Z" fill="#47B1FF"/>
</svg>
