<svg width="57" height="83" viewBox="0 0 57 83" fill="none" xmlns="http://www.w3.org/2000/svg">
<path d="M15.4307 40.0989H41.5709C42.0989 40.0984 42.6156 39.921 43.0595 39.5879C43.5034 39.2547 43.8557 38.7799 44.0744 38.22C44.2931 37.6602 44.3689 37.0388 44.2929 36.4301C44.2169 35.8214 43.9922 35.251 43.6457 34.7869L30.5756 17.3105C30.3166 16.9663 29.9976 16.6905 29.6398 16.5015C29.2819 16.3126 28.8936 16.2148 28.5008 16.2148C28.1079 16.2148 27.7196 16.3126 27.3617 16.5015C27.0039 16.6905 26.6849 16.9663 26.426 17.3105L13.3559 34.7936C13.0093 35.2577 12.7846 35.8281 12.7086 36.4368C12.6326 37.0455 12.7085 37.6668 12.9271 38.2267C13.1458 38.7866 13.4981 39.2614 13.942 39.5945C14.3859 39.9276 14.9026 40.105 15.4307 40.1056V40.0989ZM14.6441 36.1149L27.7142 18.592C27.8131 18.4629 27.9343 18.3597 28.0698 18.2889C28.2054 18.2182 28.3522 18.1817 28.5008 18.1817C28.6493 18.1817 28.7961 18.2182 28.9317 18.2889C29.0672 18.3597 29.1884 18.4629 29.2874 18.592L42.3575 36.1017C42.4833 36.278 42.5638 36.4922 42.5896 36.7196C42.6154 36.9469 42.5854 37.1781 42.5031 37.3865C42.4209 37.5948 42.2897 37.7718 42.1247 37.8969C41.9597 38.0221 41.7677 38.0903 41.5709 38.0937H15.4307C15.2338 38.0903 15.0418 38.0221 14.8768 37.8969C14.7119 37.7718 14.5806 37.5948 14.4984 37.3865C14.4161 37.1781 14.3861 36.9469 14.4119 36.7196C14.4377 36.4922 14.5182 36.278 14.6441 36.1017V36.1149Z" fill="#47B1FF"/>
<path d="M42.3282 42.8811H14.6718C14.1427 42.8811 13.6352 43.126 13.2611 43.5618C12.8869 43.9976 12.6768 44.5887 12.6768 45.2051V47.8611C12.6768 48.4775 12.8869 49.0686 13.2611 49.5044C13.6352 49.9403 14.1427 50.1851 14.6718 50.1851H42.3282C42.8573 50.1851 43.3647 49.9403 43.7388 49.5044C44.113 49.0686 44.3232 48.4775 44.3232 47.8611V45.2051C44.3232 44.5887 44.113 43.9976 43.7388 43.5618C43.3647 43.126 42.8573 42.8811 42.3282 42.8811ZM42.6132 47.8611C42.6132 47.9492 42.5831 48.0336 42.5297 48.0959C42.4762 48.1581 42.4037 48.1931 42.3282 48.1931H14.6718C14.5962 48.1931 14.5237 48.1581 14.4702 48.0959C14.4168 48.0336 14.3868 47.9492 14.3868 47.8611V45.2051C14.3868 45.1171 14.4168 45.0326 14.4702 44.9703C14.5237 44.9081 14.5962 44.8731 14.6718 44.8731H42.3282C42.4037 44.8731 42.4762 44.9081 42.5297 44.9703C42.5831 45.0326 42.6132 45.1171 42.6132 45.2051V47.8611Z" fill="#47B1FF"/>
</svg>
