<svg width="20" height="24" viewBox="0 0 20 24" fill="none" xmlns="http://www.w3.org/2000/svg">
<mask id="path-1-inside-1_165_580" fill="white">
<path fill-rule="evenodd" clip-rule="evenodd" d="M12.2305 19.7503C16.6797 18.7368 20 14.7561 20 10C20 4.47715 15.5228 0 10 0C4.47715 0 0 4.47715 0 10C0 14.7561 3.32035 18.7368 7.7695 19.7503L10 24L12.2305 19.7503Z"/>
</mask>
<path d="M12.2305 19.7503L11.7863 17.8003L10.8878 18.005L10.4596 18.8208L12.2305 19.7503ZM7.7695 19.7503L9.54039 18.8208L9.11216 18.005L8.21374 17.8003L7.7695 19.7503ZM10 24L8.2291 24.9295L10 28.3035L11.7709 24.9295L10 24ZM18 10C18 13.8024 15.3453 16.9895 11.7863 17.8003L12.6747 21.7004C18.014 20.484 22 15.7099 22 10H18ZM10 2C14.4183 2 18 5.58172 18 10H22C22 3.37258 16.6274 -2 10 -2V2ZM2 10C2 5.58172 5.58172 2 10 2V-2C3.37258 -2 -2 3.37258 -2 10H2ZM8.21374 17.8003C4.6547 16.9895 2 13.8024 2 10H-2C-2 15.7099 1.986 20.484 7.32526 21.7004L8.21374 17.8003ZM11.7709 23.0705L9.54039 18.8208L5.9986 20.6798L8.2291 24.9295L11.7709 23.0705ZM10.4596 18.8208L8.2291 23.0705L11.7709 24.9295L14.0014 20.6798L10.4596 18.8208Z" fill="#F07E15" fill-opacity="0.85" mask="url(#path-1-inside-1_165_580)"/>
<circle cx="10" cy="10" r="2" stroke="#F07E15" stroke-opacity="0.85" stroke-width="2"/>
</svg>
