<svg width="64" height="61" viewBox="0 0 64 61" fill="none" xmlns="http://www.w3.org/2000/svg">
<path d="M39.8 36.4777C39.8 36.1469 39.6946 35.8297 39.5071 35.5958C39.3196 35.3618 39.0652 35.2304 38.8 35.2304C35.9817 35.2217 33.2406 36.3789 31.0059 38.5208C28.7712 40.6627 27.1689 43.6685 26.45 47.0675C25.4244 46.732 24.3701 46.552 23.31 46.5311L22.73 44.3857C22.5845 43.8466 22.355 43.3486 22.0547 42.9205C21.7543 42.4924 21.3891 42.1425 20.98 41.8911C20.4626 41.5547 19.8829 41.3955 19.3 41.4296L18.54 38.5483C18.4514 38.2379 18.2731 37.9799 18.04 37.8248C17.918 37.7614 17.7872 37.7287 17.655 37.7287C17.5228 37.7287 17.392 37.7614 17.27 37.8248L16.5 38.1367L16.22 36.8894L16.97 36.6149C17.0961 36.5691 17.2137 36.4927 17.3161 36.3901C17.4185 36.2876 17.5037 36.1609 17.5668 36.0173C17.63 35.8736 17.6698 35.7159 17.6841 35.5531C17.6983 35.3903 17.6868 35.2255 17.65 35.0683C17.5757 34.7507 17.4034 34.4829 17.1708 34.3239C16.9383 34.1648 16.6646 34.1275 16.41 34.2201L14.73 34.8063L11.1 36.0536C10.8856 36.1314 10.6982 36.2965 10.5677 36.5226C10.4372 36.7486 10.3711 37.0226 10.38 37.301V38.8601C10.38 39.1909 10.4854 39.5082 10.6729 39.7421C10.8604 39.976 11.1148 40.1074 11.38 40.1074C11.6452 40.1074 11.8996 39.976 12.0871 39.7421C12.2746 39.5082 12.38 39.1909 12.38 38.8601V38.1741L14.3 37.4881L14.6 38.8851L14.19 39.0472C14.0651 39.0993 13.9496 39.1816 13.8502 39.2895C13.7509 39.3974 13.6696 39.5288 13.6111 39.676C13.5525 39.8232 13.5179 39.9833 13.5091 40.1473C13.5003 40.3112 13.5176 40.4757 13.56 40.6313L14.32 43.5376C13.6973 44.0794 13.2328 44.8592 12.9965 45.7591C12.7602 46.6591 12.765 47.6305 13.01 48.5268L13.83 51.6077C13.415 52.144 13.0339 52.7195 12.69 53.329C12.5372 53.5974 12.4756 53.9302 12.5186 54.255C12.5617 54.5798 12.706 54.8701 12.92 55.0628C13.1364 55.2521 13.4041 55.327 13.6645 55.2709C13.925 55.2148 14.1571 55.0323 14.31 54.7634C15.6866 52.3551 17.6603 50.5787 19.9266 49.7086C22.193 48.8385 24.6259 48.9229 26.85 49.9488C26.9932 50.0005 27.1438 50.0117 27.2908 49.9815C27.4379 49.9513 27.5777 49.8804 27.7 49.7741C27.8265 49.6814 27.935 49.5551 28.018 49.4043C28.1009 49.2534 28.1562 49.0816 28.18 48.901C28.5998 45.7697 29.8984 42.9266 31.8438 40.8793C33.7892 38.8321 36.2547 37.7141 38.8 37.7251C39.0652 37.7251 39.3196 37.5936 39.5071 37.3597C39.6946 37.1258 39.8 36.8085 39.8 36.4777ZM14.91 47.6412C14.8475 47.4089 14.8233 47.1631 14.8387 46.9188C14.8542 46.6745 14.9091 46.4366 15 46.2193C15.1746 45.7736 15.4839 45.4326 15.86 45.2713C15.9848 45.22 16.1002 45.1385 16.1998 45.0315C16.2993 44.9245 16.3809 44.7941 16.44 44.6477C16.5596 44.354 16.5811 44.0132 16.5 43.6997L15.77 41.0429L17 40.5315L17.71 43.2008C17.7507 43.3577 17.816 43.5031 17.9021 43.6283C17.9881 43.7536 18.0933 43.8564 18.2114 43.9306C18.3295 44.0049 18.4583 44.0491 18.5902 44.0609C18.7221 44.0726 18.8546 44.0516 18.98 43.9991C19.3553 43.8445 19.7644 43.8809 20.1183 44.1005C20.4722 44.32 20.7424 44.7049 20.87 45.1715L21.28 46.7057C19.1647 47.1048 17.1635 48.1599 15.46 49.7741L14.91 47.6412ZM63.1 23.2312C62.2511 23.1546 61.3989 23.1546 60.55 23.2312V17.1318H62C62.2652 17.1318 62.5196 17.0004 62.7071 16.7665C62.8946 16.5326 63 16.2153 63 15.8845V10.4836C63 10.1528 62.8946 9.83557 62.7071 9.60166C62.5196 9.36774 62.2652 9.23633 62 9.23633H53.55V5.04534C53.55 4.71453 53.4446 4.39727 53.2571 4.16336C53.0696 3.92944 52.8152 3.79802 52.55 3.79802H43.55C43.2848 3.79802 43.0304 3.92944 42.8429 4.16336C42.6554 4.39727 42.55 4.71453 42.55 5.04534V9.23633H34.14C33.8748 9.23633 33.6204 9.36774 33.4329 9.60166C33.2454 9.83557 33.14 10.1528 33.14 10.4836V15.8845C33.14 16.2153 33.2454 16.5326 33.4329 16.7665C33.6204 17.0004 33.8748 17.1318 34.14 17.1318H35.58V25.6635C35.03 25.7633 34.47 25.8755 33.93 26.0377V25.5512C33.9427 22.6039 33.4556 19.6865 32.5007 16.9905C31.5458 14.2946 30.1446 11.8809 28.3891 9.90799C26.6336 7.93506 24.5635 6.44745 22.3146 5.54278C20.0657 4.6381 17.6888 4.33681 15.34 4.65867L15.09 1.12876C15.0754 0.93774 15.0256 0.753499 14.9446 0.590377C14.8636 0.427255 14.7535 0.289652 14.6228 0.188274C14.4922 0.0868958 14.3446 0.024478 14.1915 0.00587525C14.0383 -0.0127275 13.8839 0.0129866 13.74 0.0810181L5.65 3.82297C5.49744 3.89447 5.3612 4.0114 5.25314 4.16357C5.14508 4.31575 5.06848 4.49856 5.03 4.69609C4.99135 4.89147 4.99117 5.0956 5.02948 5.29108C5.06779 5.48656 5.14345 5.66758 5.25 5.81868L7.16 8.48794C4.94834 10.4347 3.14368 13.0153 1.89774 16.0128C0.651799 19.0102 0.000982285 22.337 0 25.7134L0 59.7527C0 60.0835 0.105357 60.4008 0.292893 60.6347C0.48043 60.8686 0.734784 61 1 61H63C63.2652 61 63.5196 60.8686 63.7071 60.6347C63.8946 60.4008 64 60.0835 64 59.7527V24.4785C64.0012 24.1683 63.9097 23.8685 63.7433 23.6379C63.5769 23.4072 63.3475 23.2623 63.1 23.2312ZM39.75 17.1318C40.0152 17.1318 40.2696 17.0004 40.4571 16.7665C40.6446 16.5326 40.75 16.2153 40.75 15.8845C40.75 15.5537 40.6446 15.2365 40.4571 15.0025C40.2696 14.7686 40.0152 14.6372 39.75 14.6372H35.14V11.731H43.58C43.6298 11.7381 43.6802 11.7381 43.73 11.731H45.56C45.8252 11.731 46.0796 11.5995 46.2671 11.3656C46.4546 11.1317 46.56 10.8145 46.56 10.4836C46.56 10.1528 46.4546 9.83557 46.2671 9.60166C46.0796 9.36774 45.8252 9.23633 45.56 9.23633H44.56V6.29266H51.56V9.19891H48.07C47.8048 9.19891 47.5504 9.33032 47.3629 9.56424C47.1754 9.79816 47.07 10.1154 47.07 10.4462C47.07 10.777 47.1754 11.0943 47.3629 11.3282C47.5504 11.5621 47.8048 11.6935 48.07 11.6935H52.4C52.4499 11.6994 52.5001 11.6994 52.55 11.6935H61V14.5998H42.44C42.1748 14.5998 41.9204 14.7312 41.7329 14.9651C41.5454 15.199 41.44 15.5163 41.44 15.8471C41.44 16.1779 41.5454 16.4952 41.7329 16.7291C41.9204 16.963 42.1748 17.0944 42.44 17.0944H58.55V23.4557L58.17 23.5555L57.64 23.6927C57.34 23.78 57.04 23.8923 56.75 23.9921L56.24 24.1917L55.88 24.3289V20.5121C55.88 20.1813 55.7746 19.864 55.5871 19.6301C55.3996 19.3962 55.1452 19.2648 54.88 19.2648C54.6148 19.2648 54.3604 19.3962 54.1729 19.6301C53.9854 19.864 53.88 20.1813 53.88 20.5121V25.2394C53.8754 25.2933 53.8754 25.3477 53.88 25.4016L53.54 25.6011C52.7595 26.1249 52.0139 26.7255 51.31 27.3973V20.5121C51.31 20.1813 51.2046 19.864 51.0171 19.6301C50.8296 19.3962 50.5752 19.2648 50.31 19.2648C50.0448 19.2648 49.7904 19.3962 49.6029 19.6301C49.4154 19.864 49.31 20.1813 49.31 20.5121V29.605C49.11 29.867 48.9 30.1164 48.72 30.3908C48.31 29.9543 47.88 29.5551 47.45 29.1435C47.32 29.0313 47.18 28.9315 47.04 28.8317L46.73 28.5697C46.7741 28.4306 46.7978 28.2828 46.8 28.1332V20.5121C46.8 20.1813 46.6946 19.864 46.5071 19.6301C46.3196 19.3962 46.0652 19.2648 45.8 19.2648C45.5348 19.2648 45.2804 19.3962 45.0929 19.6301C44.9054 19.864 44.8 20.1813 44.8 20.5121V27.3224H44.68L44.29 27.1229C43.92 26.9233 43.53 26.7487 43.15 26.5865L42.86 26.4867C42.57 26.3745 42.28 26.2497 41.98 26.1624C42.1563 25.9343 42.2564 25.6311 42.26 25.3142V20.5121C42.26 20.1813 42.1546 19.864 41.9671 19.6301C41.7796 19.3962 41.5252 19.2648 41.26 19.2648C40.9948 19.2648 40.7404 19.3962 40.5529 19.6301C40.3654 19.864 40.26 20.1813 40.26 20.5121V25.2394C40.2572 25.3936 40.2811 25.5468 40.33 25.6884H39.89H39.78C39.29 25.6136 38.78 25.5762 38.31 25.5512H38.07H37.58V17.1318H39.75ZM62 58.5054H2V25.7134C2.01534 22.2998 2.77913 18.9565 4.20866 16.0455C5.63819 13.1345 7.67897 10.7669 10.11 9.19891C10.2294 9.12505 10.3358 9.02215 10.4229 8.89627C10.51 8.77039 10.576 8.62407 10.6171 8.4659C10.6582 8.30774 10.6735 8.14092 10.6621 7.97526C10.6508 7.8096 10.613 7.64844 10.551 7.50126C10.489 7.35408 10.404 7.22384 10.3011 7.11821C10.1982 7.01258 10.0793 6.93368 9.95161 6.88615C9.82388 6.83863 9.68981 6.82343 9.5573 6.84147C9.42479 6.8595 9.29651 6.91039 9.18 6.99116L8.88 7.2032L7.71 5.56921L13.21 2.97479L13.36 5.07029C12.7856 5.2292 12.2182 5.42487 11.66 5.65653C11.4259 5.77797 11.2376 6.00576 11.133 6.29383C11.0285 6.5819 11.0156 6.90874 11.0969 7.20824C11.1782 7.50774 11.3477 7.75754 11.571 7.90712C11.7944 8.0567 12.0549 8.09488 12.3 8.01396C13.84 7.36459 15.4544 7.03179 17.08 7.02857C21.0177 7.03188 24.7933 8.98443 27.5776 12.4574C30.362 15.9303 31.9274 20.6397 31.93 25.5512C31.93 25.9254 31.93 26.2872 31.93 26.6115C31.93 26.9358 31.88 27.2725 31.86 27.5968C31.8413 27.8049 31.8649 28.0156 31.9287 28.2093C31.9924 28.403 32.0942 28.5736 32.2248 28.7053C32.3553 28.837 32.5103 28.9257 32.6755 28.963C32.8407 29.0003 33.0107 28.9852 33.17 28.919C34.3034 28.4425 35.4784 28.1368 36.67 28.0085C37.09 28.0085 37.5 28.0085 37.93 28.0085C41.7192 28.0004 45.3652 29.8141 48.11 33.0726H48.18C48.2771 33.1829 48.3906 33.2684 48.5141 33.3241C48.6377 33.3797 48.7688 33.4044 48.9 33.3969C49.0693 33.3903 49.2344 33.3302 49.38 33.2222C49.4652 33.166 49.5456 33.0991 49.62 33.0227L49.71 32.8855C50.9994 30.7865 52.6367 29.0592 54.51 27.8214C56.1131 26.7582 57.8584 26.0692 59.66 25.7882C60.4366 25.6768 61.2184 25.631 62 25.651V58.5054ZM21.15 30.7526C21.2401 30.9323 21.3654 31.0805 21.5141 31.183C21.6628 31.2856 21.8301 31.3392 22 31.3388C22.1675 31.3398 22.3326 31.2884 22.48 31.1891C23.6304 30.3554 24.8791 29.7534 26.18 29.4054C26.3113 29.4005 26.4406 29.3634 26.5604 29.2962C26.6802 29.229 26.7882 29.133 26.8783 29.0137C26.9684 28.8944 27.0387 28.7541 27.0854 28.6009C27.132 28.4477 27.1539 28.2845 27.15 28.1207C27.1461 27.9569 27.1163 27.7957 27.0624 27.6462C27.0085 27.4968 26.9315 27.362 26.8359 27.2497C26.7402 27.1373 26.6278 27.0496 26.505 26.9914C26.3821 26.9333 26.2513 26.9059 26.12 26.9108C24.7922 27.1517 23.5091 27.6837 22.33 28.4824C22.27 28.3951 22.21 28.3203 22.16 28.233L23 26.5366C23.3789 25.7235 23.5377 24.7798 23.4531 23.8452C23.3684 22.9107 23.0448 22.035 22.53 21.3478L23.74 18.7534C23.8058 18.6113 23.8486 18.4545 23.8657 18.2918C23.8829 18.1291 23.8741 17.9638 23.84 17.8054C23.7734 17.4858 23.608 17.2122 23.38 17.0445L20.57 15.0114C20.4568 14.9272 20.3314 14.8717 20.201 14.8482C20.0706 14.8246 19.9377 14.8335 19.81 14.8742C19.5549 14.9673 19.3372 15.1766 19.2 15.4604L17.99 18.0424C17.4286 17.8681 16.8414 17.8681 16.28 18.0424C15.8251 18.1833 15.3977 18.437 15.0231 18.7885C14.6486 19.14 14.3346 19.5819 14.1 20.088L12.83 22.7947C11.7671 22.7623 10.7045 22.871 9.66 23.119C9.41397 23.205 9.20367 23.4051 9.07224 23.6784C8.94082 23.9517 8.89825 24.2774 8.95327 24.5886C9.00829 24.8998 9.15672 25.173 9.36811 25.352C9.5795 25.531 9.8378 25.6023 10.09 25.5512C10.17 25.5388 17.57 23.5805 21.15 30.7526ZM15.82 21.3478C16.0223 20.9221 16.3507 20.6129 16.7343 20.4869C17.1179 20.3608 17.5259 20.4281 17.87 20.6742C17.9839 20.7563 18.1096 20.8096 18.24 20.831C18.3705 20.8524 18.503 20.8415 18.63 20.799C18.8862 20.7159 19.1056 20.5096 19.24 20.2252L20.38 17.7929L21.46 18.5787L20.32 21.0734C20.2535 21.215 20.21 21.3716 20.1921 21.5342C20.1742 21.6968 20.1822 21.8622 20.2156 22.021C20.2491 22.1797 20.3073 22.3287 20.387 22.4593C20.4667 22.59 20.5662 22.6997 20.68 22.7822C21.0119 23.0294 21.2537 23.4278 21.3544 23.8933C21.4552 24.3588 21.407 24.8549 21.22 25.2768L20.73 26.337C19.1023 24.5991 17.1177 23.4629 15 23.0566L15.82 21.3478ZM59.55 43.9616H57.33L56.66 42.0907C56.5739 41.8558 56.4314 41.66 56.2523 41.5304C56.0732 41.4009 55.8662 41.3438 55.66 41.3672L53.57 41.6666L52.79 40.2571C52.6873 40.0694 52.5455 39.9202 52.3799 39.8257C52.2142 39.7312 52.031 39.6949 51.85 39.7208L49.68 40.0451L48.84 38.7978C48.7268 38.6405 48.5834 38.5216 48.4233 38.4524C48.2632 38.3832 48.0917 38.3658 47.9247 38.402C47.7578 38.4382 47.6009 38.5266 47.4689 38.6591C47.3369 38.7916 47.234 38.9638 47.17 39.1595L44.91 46.1694C43.8204 46.1229 42.7356 46.372 41.7308 46.8996C40.7259 47.4273 39.8249 48.2208 39.09 49.2253C38.9872 49.3339 38.903 49.4674 38.8425 49.6176C38.782 49.7678 38.7465 49.9317 38.7381 50.0995C38.7297 50.2672 38.7486 50.4354 38.7936 50.5938C38.8386 50.7523 38.9088 50.8977 39 51.0215C39.1874 51.2538 39.4408 51.3842 39.705 51.3842C39.9692 51.3842 40.2226 51.2538 40.41 51.0215C40.9598 50.2432 41.6418 49.6277 42.4065 49.2199C43.1711 48.812 43.9991 48.6221 44.83 48.664C47.53 49.0258 49.46 52.5557 49.48 52.5806C49.6108 52.8262 49.8071 53.006 50.0341 53.0882C50.2611 53.1704 50.5041 53.1497 50.72 53.0296C55.59 50.2731 57.78 54.3643 57.87 54.5514C57.9613 54.7288 58.0871 54.8745 58.2357 54.9748C58.3844 55.0752 58.551 55.1269 58.72 55.1251C58.9072 55.1259 59.0909 55.0611 59.25 54.938C59.473 54.7632 59.6317 54.4856 59.6917 54.1657C59.7516 53.8457 59.7079 53.5092 59.57 53.2292C59.2381 52.6312 58.8409 52.0938 58.39 51.6326L60.39 45.633C60.4544 45.4435 60.4801 45.237 60.465 45.032C60.4498 44.827 60.3942 44.6298 60.3031 44.4582C60.212 44.2865 60.0882 44.1456 59.9429 44.0481C59.7975 43.9506 59.6351 43.8994 59.47 43.8993L59.55 43.9616ZM50.67 50.4352C49.6477 48.8648 48.3375 47.6241 46.85 46.818L48.39 42.0283L48.5 42.178C48.6074 42.3294 48.7427 42.446 48.8943 42.5177C49.0458 42.5894 49.2091 42.6141 49.37 42.5896L51.46 42.2902L52.24 43.6997C52.3427 43.8874 52.4845 44.0366 52.6501 44.1311C52.8158 44.2257 52.999 44.2619 53.18 44.2361L55.18 43.9492L55.81 45.7204C55.8896 45.9411 56.0189 46.1283 56.1823 46.259C56.3456 46.3896 56.5359 46.4582 56.73 46.4563H58L56.67 50.3604C55.7165 49.8727 54.6944 49.6281 53.6639 49.641C52.6335 49.6538 51.6155 49.9239 50.67 50.4352ZM18.56 10.5211C18.6238 10.2003 18.7871 9.92427 19.014 9.75355C19.2408 9.58283 19.5128 9.53139 19.77 9.61052C22.7 10.5211 26.77 13.0656 29.3 20.0131C29.3555 20.1621 29.3868 20.3233 29.3922 20.4875C29.3975 20.6516 29.3769 20.8155 29.3313 20.9696C29.2858 21.1237 29.2163 21.2652 29.1268 21.3857C29.0374 21.5063 28.9297 21.6036 28.81 21.6721C28.6782 21.747 28.5349 21.7853 28.39 21.7843C28.2004 21.7826 28.0152 21.7136 27.8558 21.5855C27.6965 21.4574 27.5696 21.2755 27.49 21.0609C25.68 16.1964 22.92 13.1654 19.29 12.0303C19.1605 11.9911 19.0386 11.92 18.9315 11.8211C18.8244 11.7223 18.7341 11.5978 18.6661 11.4549C18.5981 11.3119 18.5537 11.1535 18.5355 10.9888C18.5172 10.8242 18.5256 10.6567 18.56 10.4961V10.5211ZM13.44 10.7581C13.4137 10.5975 13.413 10.4321 13.438 10.2713C13.463 10.1104 13.5131 9.95726 13.5855 9.82058C13.658 9.6839 13.7513 9.56636 13.8602 9.47467C13.969 9.38299 14.0913 9.31895 14.22 9.28622C14.7417 9.16828 15.27 9.10155 15.8 9.08665C16.0652 9.08665 16.3196 9.21806 16.5071 9.45198C16.6946 9.6859 16.8 10.0032 16.8 10.334C16.8 10.6648 16.6946 10.982 16.5071 11.216C16.3196 11.4499 16.0652 11.5813 15.8 11.5813C15.3779 11.5983 14.9571 11.6483 14.54 11.731H14.35C14.1317 11.7118 13.9244 11.6038 13.76 11.4235C13.5957 11.2433 13.4832 11.0007 13.44 10.7331V10.7581ZM12.84 56.123C12.8904 56.2776 12.9175 56.4425 12.92 56.6094C12.9162 56.9384 12.8084 57.2523 12.62 57.4826C12.4326 57.7149 12.1792 57.8453 11.915 57.8453C11.6508 57.8453 11.3974 57.7149 11.21 57.4826C11.0253 57.2502 10.9211 56.9367 10.92 56.6094C10.9188 56.4433 10.9426 56.2783 10.99 56.123C11.0417 55.9733 11.1165 55.8377 11.21 55.7238C11.2549 55.6665 11.3053 55.6163 11.36 55.5742L11.53 55.4494L11.72 55.3871C11.914 55.3357 12.1159 55.3574 12.3 55.4494C12.4178 55.5188 12.5259 55.6115 12.62 55.7238C12.7141 55.8273 12.7892 55.955 12.84 56.098V56.123Z" fill="#47B1FF"/>
</svg>
