<svg width="34" height="35" viewBox="0 0 34 35" fill="none" xmlns="http://www.w3.org/2000/svg">
<g clip-path="url(#clip0_363_428)">
<path fill-rule="evenodd" clip-rule="evenodd" d="M18.0836 3.72184C17.4865 3.29271 16.6802 3.29271 16.0831 3.72184L4.12479 12.3163C3.68009 12.6359 3.41667 13.1486 3.41667 13.6945V28.956C3.41667 29.8949 4.18152 30.656 5.125 30.656H10.25C11.1935 30.656 11.9583 29.8949 11.9583 28.956V23.006C11.9583 20.1893 14.2528 17.906 17.0833 17.906C19.9139 17.906 22.2083 20.1893 22.2083 23.006V28.956C22.2083 29.8949 22.9732 30.656 23.9167 30.656H29.0417C29.9852 30.656 30.75 29.8949 30.75 28.956V13.6945C30.75 13.1486 30.4866 12.6359 30.0419 12.3163L18.0836 3.72184ZM14.0826 0.965532C15.874 -0.321844 18.2927 -0.321844 20.084 0.965532L32.0424 9.55998C33.3764 10.5188 34.1667 12.0568 34.1667 13.6945V28.956C34.1667 31.7726 31.8722 34.056 29.0417 34.056H23.9167C21.0861 34.056 18.7917 31.7726 18.7917 28.956V23.006C18.7917 22.0671 18.0268 21.306 17.0833 21.306C16.1398 21.306 15.375 22.0671 15.375 23.006V28.956C15.375 31.7726 13.0805 34.056 10.25 34.056H5.125C2.29455 34.056 0 31.7726 0 28.956V13.6945C0 12.0568 0.790258 10.5188 2.12436 9.55998L14.0826 0.965532Z" fill="#EDEDED"/>
</g>
<defs>
<clipPath id="clip0_363_428">
<rect width="34" height="35" fill="white"/>
</clipPath>
</defs>
</svg>
