<svg width="15" height="49" viewBox="0 0 15 49" fill="none" xmlns="http://www.w3.org/2000/svg">
<path d="M7.50007 34.8554C5.66279 34.8574 3.90131 35.5881 2.60215 36.8872C1.30299 38.1864 0.572266 39.9479 0.570312 41.7852C0.946689 50.988 14.0535 50.9806 14.4372 41.7852C14.4333 39.9472 13.7009 38.1857 12.4006 36.8868C11.1003 35.5878 9.33804 34.8574 7.50007 34.8554V34.8554ZM7.50007 46.4936C6.56592 46.4936 5.65275 46.2166 4.87603 45.6976C4.09931 45.1786 3.49393 44.4409 3.13644 43.5779C2.77896 42.7148 2.68542 41.7652 2.86767 40.849C3.04991 39.9328 3.49975 39.0912 4.1603 38.4306C4.82084 37.7701 5.66243 37.3202 6.57863 37.138C7.49483 36.9558 8.4445 37.0493 9.30755 37.4068C10.1706 37.7643 10.9083 38.3696 11.4272 39.1464C11.9462 39.9231 12.2232 40.8363 12.2232 41.7704C12.2232 43.0231 11.7256 44.2244 10.8399 45.1102C9.95409 45.9959 8.75273 46.4936 7.50007 46.4936Z" fill="#FFFCFC"/>
<path d="M14.1419 0.966771C13.8572 0.664614 13.5143 0.423197 13.1338 0.257051C12.7533 0.0909051 12.3431 0.00346679 11.928 0H3.07204C2.65835 0.00269655 2.2494 0.0883781 1.86942 0.251971C1.48944 0.415564 1.14615 0.653742 0.859882 0.9524C0.57361 1.25106 0.350177 1.60412 0.202817 1.99069C0.0554569 2.37725 -0.0128344 2.78946 0.00198461 3.20289L1.13111 30.0511C1.16166 30.8447 1.49855 31.5956 2.07102 32.146C2.64349 32.6965 3.40699 33.0037 4.20117 33.0031H10.7988C11.593 33.0037 12.3565 32.6965 12.929 32.146C13.5015 31.5956 13.8383 30.8447 13.8689 30.0511L14.998 3.20289C15.0128 2.79178 14.9446 2.3819 14.7976 1.99771C14.6505 1.61352 14.4275 1.2629 14.1419 0.966771V0.966771ZM11.6549 29.9773C11.6491 30.1998 11.5561 30.4111 11.396 30.5658C11.2359 30.7204 11.0214 30.8059 10.7988 30.8039H4.20117C3.9797 30.8022 3.76734 30.7154 3.60801 30.5616C3.44868 30.4078 3.35455 30.1986 3.3451 29.9773L2.21597 3.13647C2.2079 3.01884 2.22402 2.90079 2.26332 2.78962C2.30262 2.67845 2.36427 2.57651 2.44448 2.49007C2.52469 2.40364 2.62175 2.33456 2.72968 2.28707C2.83762 2.23959 2.95413 2.21471 3.07204 2.21398H11.928C12.0442 2.2149 12.1591 2.23909 12.2659 2.28513C12.3727 2.33116 12.4691 2.39811 12.5496 2.48203C12.6301 2.56595 12.6929 2.66513 12.7345 2.77372C12.776 2.88232 12.7954 2.99813 12.7914 3.11433L11.6549 29.9773Z" fill="#FFFCFC"/>
</svg>
