<svg width="54" height="70" viewBox="0 0 54 70" fill="none" xmlns="http://www.w3.org/2000/svg">
<path d="M22.7812 20.8906C20.9197 20.8906 19.0635 20.8906 17.202 20.8906C14.2594 20.8906 11.3115 20.8906 8.36894 20.8906C7.68867 20.8906 7.0084 20.8906 6.32812 20.8906C7.20879 21.8039 8.08418 22.7117 8.96484 23.625C8.96484 21.6945 8.96484 19.7695 8.96484 17.8391C8.96484 14.7875 8.96484 11.7305 8.96484 8.67891C8.96484 7.97344 8.96484 7.26797 8.96484 6.5625C8.08418 7.47578 7.20879 8.38359 6.32812 9.29688C8.18965 9.29688 10.0459 9.29688 11.9074 9.29688C14.85 9.29688 17.7978 9.29688 20.7404 9.29688C21.4207 9.29688 22.101 9.29688 22.7812 9.29688C21.9006 8.38359 21.0252 7.47578 20.1445 6.5625C20.1445 8.49297 20.1445 10.418 20.1445 12.3484C20.1445 15.4 20.1445 18.457 20.1445 21.5086C20.1445 22.2141 20.1445 22.9195 20.1445 23.625C20.1445 24.325 20.4398 25.0633 20.9145 25.5609C21.3732 26.0367 22.1221 26.3922 22.7812 26.3594C23.4615 26.3266 24.1682 26.0969 24.648 25.5609C25.1227 25.025 25.418 24.3688 25.418 23.625C25.418 21.6945 25.418 19.7695 25.418 17.8391C25.418 14.7875 25.418 11.7305 25.418 8.67891C25.418 7.97344 25.418 7.26797 25.418 6.5625C25.418 5.08594 24.2104 3.82812 22.7812 3.82812C20.9197 3.82812 19.0635 3.82812 17.202 3.82812C14.2594 3.82812 11.3115 3.82812 8.36894 3.82812C7.68867 3.82812 7.0084 3.82812 6.32812 3.82812C4.9043 3.82812 3.69141 5.08047 3.69141 6.5625C3.69141 8.49297 3.69141 10.418 3.69141 12.3484C3.69141 15.4 3.69141 18.457 3.69141 21.5086C3.69141 22.2141 3.69141 22.9195 3.69141 23.625C3.69141 25.1016 4.89902 26.3594 6.32812 26.3594C8.18965 26.3594 10.0459 26.3594 11.9074 26.3594C14.85 26.3594 17.7978 26.3594 20.7404 26.3594C21.4207 26.3594 22.101 26.3594 22.7812 26.3594C23.4562 26.3594 24.1682 26.0531 24.648 25.5609C25.1068 25.0852 25.4496 24.3086 25.418 23.625C25.3863 22.9195 25.1648 22.1867 24.648 21.6891C24.1312 21.2023 23.4932 20.8906 22.7812 20.8906Z" fill="#EDEDED"/>
<path d="M22.8867 46.7031C21.0252 46.7031 19.1637 46.7031 17.2969 46.7031C14.3279 46.7031 11.3537 46.7031 8.38477 46.7031C7.69922 46.7031 7.01367 46.7031 6.32812 46.7031C7.20879 47.6164 8.08418 48.5242 8.96484 49.4375C8.96484 47.507 8.96484 45.582 8.96484 43.6516C8.96484 40.6 8.96484 37.543 8.96484 34.4914C8.96484 33.7859 8.96484 33.0805 8.96484 32.375C8.08418 33.2883 7.20879 34.1961 6.32812 35.1094C8.18965 35.1094 10.0512 35.1094 11.918 35.1094C14.8869 35.1094 17.8611 35.1094 20.8301 35.1094C21.5156 35.1094 22.2012 35.1094 22.8867 35.1094C22.0061 34.1961 21.1307 33.2883 20.25 32.375C20.25 34.3055 20.25 36.2305 20.25 38.1609C20.25 41.2125 20.25 44.2695 20.25 47.3211C20.25 48.0266 20.25 48.732 20.25 49.4375C20.25 50.1375 20.5453 50.8758 21.0199 51.3734C21.4787 51.8492 22.2275 52.2047 22.8867 52.1719C23.567 52.1391 24.2736 51.9094 24.7535 51.3734C25.2281 50.8375 25.5234 50.1813 25.5234 49.4375C25.5234 47.507 25.5234 45.582 25.5234 43.6516C25.5234 40.6 25.5234 37.543 25.5234 34.4914C25.5234 33.7859 25.5234 33.0805 25.5234 32.375C25.5234 30.8984 24.3158 29.6406 22.8867 29.6406C21.0252 29.6406 19.1637 29.6406 17.2969 29.6406C14.3279 29.6406 11.3537 29.6406 8.38477 29.6406C7.69922 29.6406 7.01367 29.6406 6.32812 29.6406C4.9043 29.6406 3.69141 30.893 3.69141 32.375C3.69141 34.3055 3.69141 36.2305 3.69141 38.1609C3.69141 41.2125 3.69141 44.2695 3.69141 47.3211C3.69141 48.0266 3.69141 48.732 3.69141 49.4375C3.69141 50.9141 4.89902 52.1719 6.32812 52.1719C8.18965 52.1719 10.0512 52.1719 11.918 52.1719C14.8869 52.1719 17.8611 52.1719 20.8301 52.1719C21.5156 52.1719 22.2012 52.1719 22.8867 52.1719C23.5617 52.1719 24.2736 51.8656 24.7535 51.3734C25.2123 50.8977 25.5551 50.1211 25.5234 49.4375C25.4918 48.732 25.2703 47.9992 24.7535 47.5016C24.2367 47.0148 23.6039 46.7031 22.8867 46.7031Z" fill="#EDEDED"/>
<path d="M47.6719 29.6406C45.8104 29.6406 43.9541 29.6406 42.0926 29.6406C39.15 29.6406 36.2021 29.6406 33.2596 29.6406C32.5793 29.6406 31.899 29.6406 31.2188 29.6406C29.7949 29.6406 28.582 30.893 28.582 32.375C28.582 34.3055 28.582 36.2305 28.582 38.1609C28.582 41.2125 28.582 44.2696 28.582 47.3211C28.582 48.0266 28.582 48.7321 28.582 49.4375C28.582 50.9141 29.7896 52.1719 31.2188 52.1719C33.0803 52.1719 34.9365 52.1719 36.798 52.1719C39.7406 52.1719 42.6885 52.1719 45.6311 52.1719C46.3113 52.1719 46.9916 52.1719 47.6719 52.1719C49.0957 52.1719 50.3086 50.9196 50.3086 49.4375C50.3086 47.5071 50.3086 45.5821 50.3086 43.6516C50.3086 40.6 50.3086 37.543 50.3086 34.4914C50.3086 33.7859 50.3086 33.0805 50.3086 32.375C50.3086 31.675 50.0133 30.9367 49.5387 30.4391C49.0799 29.9687 48.3311 29.6078 47.6719 29.6406C46.9916 29.6734 46.285 29.9031 45.8051 30.4391C45.3305 30.975 45.0352 31.6312 45.0352 32.375C45.0352 34.3055 45.0352 36.2305 45.0352 38.1609C45.0352 41.2125 45.0352 44.2696 45.0352 47.3211C45.0352 48.0266 45.0352 48.7321 45.0352 49.4375C45.9158 48.5242 46.7912 47.6164 47.6719 46.7032C45.8104 46.7032 43.9541 46.7032 42.0926 46.7032C39.15 46.7032 36.2021 46.7032 33.2596 46.7032C32.5793 46.7032 31.899 46.7032 31.2188 46.7032C32.0994 47.6164 32.9748 48.5242 33.8555 49.4375C33.8555 47.5071 33.8555 45.5821 33.8555 43.6516C33.8555 40.6 33.8555 37.543 33.8555 34.4914C33.8555 33.7859 33.8555 33.0805 33.8555 32.375C32.9748 33.2883 32.0994 34.1961 31.2188 35.1094C33.0803 35.1094 34.9365 35.1094 36.798 35.1094C39.7406 35.1094 42.6885 35.1094 45.6311 35.1094C46.3113 35.1094 46.9916 35.1094 47.6719 35.1094C48.3469 35.1094 49.0588 34.8031 49.5387 34.3109C49.9975 33.8352 50.3402 33.0586 50.3086 32.375C50.277 31.6695 50.0555 30.9367 49.5387 30.4391C49.0219 29.9523 48.3838 29.6406 47.6719 29.6406Z" fill="#EDEDED"/>
<path d="M47.6719 3.82812C45.8104 3.82812 43.9488 3.82812 42.082 3.82812C39.1131 3.82812 36.1389 3.82812 33.1699 3.82812C32.4844 3.82812 31.7988 3.82812 31.1133 3.82812C29.6895 3.82812 28.4766 5.08047 28.4766 6.5625C28.4766 8.49297 28.4766 10.418 28.4766 12.3484C28.4766 15.4 28.4766 18.457 28.4766 21.5086C28.4766 22.2141 28.4766 22.9195 28.4766 23.625C28.4766 25.1016 29.6842 26.3594 31.1133 26.3594C32.9748 26.3594 34.8363 26.3594 36.7031 26.3594C39.6721 26.3594 42.6463 26.3594 45.6152 26.3594C46.3008 26.3594 46.9863 26.3594 47.6719 26.3594C49.0957 26.3594 50.3086 25.107 50.3086 23.625C50.3086 21.6945 50.3086 19.7695 50.3086 17.8391C50.3086 14.7875 50.3086 11.7305 50.3086 8.6789C50.3086 7.97343 50.3086 7.26797 50.3086 6.5625C50.3086 5.8625 50.0133 5.12422 49.5387 4.62656C49.0799 4.15625 48.3311 3.79531 47.6719 3.82812C46.9916 3.86093 46.285 4.09062 45.8051 4.62656C45.3305 5.1625 45.0352 5.81875 45.0352 6.5625C45.0352 8.49297 45.0352 10.418 45.0352 12.3484C45.0352 15.4 45.0352 18.457 45.0352 21.5086C45.0352 22.2141 45.0352 22.9195 45.0352 23.625C45.9158 22.7117 46.7912 21.8039 47.6719 20.8906C45.8104 20.8906 43.9488 20.8906 42.082 20.8906C39.1131 20.8906 36.1389 20.8906 33.1699 20.8906C32.4844 20.8906 31.7988 20.8906 31.1133 20.8906C31.9939 21.8039 32.8693 22.7117 33.75 23.625C33.75 21.6945 33.75 19.7695 33.75 17.8391C33.75 14.7875 33.75 11.7305 33.75 8.6789C33.75 7.97343 33.75 7.26797 33.75 6.5625C32.8693 7.47578 31.9939 8.38359 31.1133 9.29687C32.9748 9.29687 34.8363 9.29687 36.7031 9.29687C39.6721 9.29687 42.6463 9.29687 45.6152 9.29687C46.3008 9.29687 46.9863 9.29687 47.6719 9.29687C48.3469 9.29687 49.0588 8.99062 49.5387 8.49843C49.9975 8.02265 50.3402 7.24609 50.3086 6.5625C50.277 5.85703 50.0555 5.12422 49.5387 4.62656C49.0219 4.13984 48.3838 3.82812 47.6719 3.82812Z" fill="#EDEDED"/>
</svg>
