<svg width="61" height="60" viewBox="0 0 61 60" fill="none" xmlns="http://www.w3.org/2000/svg">
<path d="M11.4375 22.5C7.23358 22.5 3.8125 19.135 3.8125 15C3.8125 10.865 7.23358 7.5 11.4375 7.5C15.6414 7.5 19.0625 10.865 19.0625 15C19.0625 19.135 15.6414 22.5 11.4375 22.5ZM11.4375 11.25C9.33554 11.25 7.625 12.9325 7.625 15C7.625 17.0675 9.33554 18.75 11.4375 18.75C13.5395 18.75 15.25 17.0675 15.25 15C15.25 12.9325 13.5395 11.25 11.4375 11.25Z" fill="#FFFCFC"/>
<path d="M7.625 56.25C6.66679 56.25 5.85346 55.545 5.734 54.6075L4.03617 41.25H1.90625C0.854 41.25 0 40.41 0 39.375V33.75C0 27.5475 5.13163 22.5 11.4375 22.5C12.4898 22.5 13.3438 23.34 13.3438 24.375C13.3438 25.41 12.4898 26.25 11.4375 26.25C7.23358 26.25 3.8125 29.615 3.8125 33.75V37.5H5.71875C6.67696 37.5 7.49029 38.205 7.60975 39.1425L9.30758 52.5H15.25C16.3022 52.5 17.1562 53.34 17.1562 54.375C17.1562 55.41 16.3022 56.25 15.25 56.25H7.625Z" fill="#FFFCFC"/>
<path d="M49.5625 22.5C45.3586 22.5 41.9375 19.135 41.9375 15C41.9375 10.865 45.3586 7.5 49.5625 7.5C53.7664 7.5 57.1875 10.865 57.1875 15C57.1875 19.135 53.7664 22.5 49.5625 22.5ZM49.5625 11.25C47.4605 11.25 45.75 12.9325 45.75 15C45.75 17.0675 47.4605 18.75 49.5625 18.75C51.6645 18.75 53.375 17.0675 53.375 15C53.375 12.9325 51.6645 11.25 49.5625 11.25Z" fill="#FFFCFC"/>
<path d="M45.75 56.25C44.6978 56.25 43.8438 55.41 43.8438 54.375C43.8438 53.34 44.6978 52.5 45.75 52.5H51.6924L53.3903 39.1425C53.5097 38.205 54.323 37.5 55.2812 37.5H57.1875V33.75C57.1875 29.615 53.7664 26.25 49.5625 26.25C48.5103 26.25 47.6562 25.41 47.6562 24.375C47.6562 23.34 48.5103 22.5 49.5625 22.5C55.8684 22.5 61 27.5475 61 33.75V39.375C61 40.41 60.146 41.25 59.0938 41.25H56.9638L55.266 54.6075C55.1465 55.545 54.3332 56.25 53.375 56.25H45.75Z" fill="#FFFCFC"/>
<path d="M30.5 18.75C25.2438 18.75 20.9688 14.545 20.9688 9.375C20.9688 4.205 25.2438 0 30.5 0C35.7562 0 40.0312 4.205 40.0312 9.375C40.0312 14.545 35.7562 18.75 30.5 18.75ZM30.5 3.75C27.3458 3.75 24.7812 6.2725 24.7812 9.375C24.7812 12.4775 27.3458 15 30.5 15C33.6542 15 36.2188 12.4775 36.2188 9.375C36.2188 6.2725 33.6542 3.75 30.5 3.75Z" fill="#FFFCFC"/>
<path d="M24.7812 60C23.7976 60 22.9817 59.275 22.8852 58.3125L21.1492 41.25H17.1562C16.104 41.25 15.25 40.41 15.25 39.375V33.75C15.25 25.48 22.0922 18.75 30.5 18.75C38.9078 18.75 45.75 25.48 45.75 33.75V39.375C45.75 40.41 44.896 41.25 43.8438 41.25H39.8508L38.1148 58.3125C38.0183 59.2725 37.2024 60 36.2188 60H24.7812ZM34.493 56.25L36.2289 39.1875C36.3255 38.2275 37.1414 37.5 38.125 37.5H41.9375V33.75C41.9375 27.5475 36.8059 22.5 30.5 22.5C24.1941 22.5 19.0625 27.5475 19.0625 33.75V37.5H22.875C23.8586 37.5 24.6745 38.225 24.7711 39.1875L26.5045 56.25H34.493Z" fill="#FFFCFC"/>
</svg>
