<svg width="24" height="24" viewBox="0 0 24 24" fill="none" xmlns="http://www.w3.org/2000/svg">
<path fill-rule="evenodd" clip-rule="evenodd" d="M12.0257 11.2988C12.0257 13.7039 12.0264 16.109 12.0254 18.5142C12.0249 19.7215 11.6181 19.957 10.5336 19.38C8.51542 18.3059 6.50407 17.2187 4.47309 16.1696C4.11504 15.9847 3.67856 15.8964 3.27188 15.8726C2.48566 15.8268 1.69458 15.8718 0.906054 15.8538C0.229907 15.8382 0.00606466 15.6072 0.00444763 14.9359C-0.00155845 12.5115 -0.00132909 10.0872 0.00421499 7.66266C0.00571652 6.98801 0.279688 6.71854 0.943361 6.69602C1.05875 6.69221 1.17598 6.68228 1.2894 6.69718C3.14494 6.94146 4.77929 6.41085 6.35462 5.4337C7.73948 4.5746 9.22506 3.87767 10.6685 3.11339C11.5679 2.63718 12.0239 2.90503 12.0249 3.91024C12.0274 6.37308 12.0257 8.83592 12.0257 11.2988ZM10.5686 17.7639C10.5686 13.4031 10.5686 9.14882 10.5686 4.89408C10.5019 4.89027 10.4585 4.87375 10.4314 4.88807C8.64917 5.82872 6.86536 6.76659 5.09334 7.72595C4.96663 7.79456 4.85794 8.02302 4.8569 8.17803C4.84143 10.2538 4.84258 12.3299 4.85529 14.4058C4.85609 14.5477 4.9433 14.7597 5.05476 14.8202C6.85808 15.7978 8.67181 16.756 10.5686 17.7639ZM1.49372 8.18761C1.49372 10.289 1.49372 12.3327 1.49372 14.384C2.12818 14.384 2.71492 14.384 3.32235 14.384C3.32235 12.3076 3.32235 10.262 3.32235 8.18761C2.70591 8.18761 2.11951 8.18761 1.49372 8.18761Z" fill="#FF4778"/>
<path fill-rule="evenodd" clip-rule="evenodd" d="M17.8871 10.7091C16.9389 11.1446 16.0703 11.5465 15.1987 11.9425C14.6786 12.1787 14.2583 12.0694 14.0907 11.6402C13.8907 11.1276 14.1834 10.8394 14.6045 10.6428C15.839 10.0671 17.0684 9.47915 18.3207 8.9445C18.5805 8.83361 19.039 8.81121 19.209 8.96529C19.41 9.14732 19.4833 9.57144 19.4609 9.8796C19.4071 10.616 19.2647 11.346 19.1409 12.1953C20.0401 11.7571 20.827 11.3696 21.618 10.9906C21.8247 10.8917 22.0588 10.7282 22.2547 10.7586C22.5222 10.8 22.8834 10.9407 22.9849 11.147C23.0826 11.3453 22.9252 11.6902 22.8292 11.9522C22.7928 12.0514 22.6199 12.1096 22.5002 12.168C21.2421 12.783 19.9905 13.4126 18.7157 13.9909C18.4581 14.1078 18.0232 14.1459 17.829 14.0034C17.632 13.8589 17.5414 13.4392 17.5627 13.152C17.6211 12.3704 17.7632 11.595 17.8871 10.7091Z" fill="#FF4778"/>
<path fill-rule="evenodd" clip-rule="evenodd" d="M18.0986 20.4356C19.0799 20.8558 19.9942 21.2441 20.9057 21.6389C21.2915 21.8061 21.5628 22.0649 21.451 22.5285C21.3476 22.9565 20.8877 23.1805 20.4453 22.999C19.2021 22.4888 17.9623 21.9695 16.7317 21.4296C16.1412 21.1704 16.0414 20.695 16.4527 20.1687C16.9133 19.5792 17.4008 19.0106 17.9311 18.3666C16.8953 18.0092 15.911 17.6662 14.9244 17.3299C14.1079 17.0515 13.8354 16.7432 13.998 16.2632C14.1623 15.7787 14.5777 15.6875 15.377 15.9616C16.6484 16.3972 17.9225 16.8254 19.1899 17.2728C19.9682 17.5479 20.0889 18.0189 19.5624 18.6685C19.1026 19.2356 18.6314 19.7932 18.0986 20.4356Z" fill="#FF4778"/>
<path fill-rule="evenodd" clip-rule="evenodd" d="M18.0976 2.61558C18.6147 3.23941 19.0829 3.79705 19.543 4.36151C20.0966 5.04054 19.978 5.5082 19.1648 5.79188C17.8047 6.26601 16.4376 6.71947 15.0765 7.1906C14.6126 7.35115 14.2305 7.29225 14.0152 6.81569C13.8285 6.40184 14.0597 6.02646 14.6243 5.82722C15.7062 5.44549 16.7941 5.08108 17.9332 4.69103C17.4415 4.09528 16.985 3.55195 16.5395 2.99962C15.9973 2.32775 16.0915 1.90917 16.8672 1.57272C18.0122 1.07606 19.1606 0.587605 20.3112 0.104346C20.8312 -0.114183 21.2594 0.0152921 21.4197 0.448077C21.612 0.967026 21.3028 1.24423 20.8774 1.42892C19.9811 1.81816 19.0801 2.197 18.0976 2.61558Z" fill="#FF4778"/>
</svg>
