<svg width="69" height="68" viewBox="0 0 69 68" fill="none" xmlns="http://www.w3.org/2000/svg">
<g filter="url(#filter0_d_171_497)">
<path d="M27.4876 31.6278V29.3327C31.5797 26.5031 48.0621 14.2352 48.0621 0H43.49C43.49 14.0419 23.9945 26.8063 23.7979 26.9333L22.9155 27.5019V32.7877L23.2996 33.2653C25.5078 35.9902 28.5257 38.1974 32.0622 39.674C35.5987 41.1506 39.5345 41.8468 43.49 41.6954V37.9049C40.4023 38.0513 37.3196 37.5535 34.524 36.4569C31.7284 35.3603 29.3092 33.6999 27.4876 31.6278Z" fill="#47B1FF"/>
<path d="M60.5144 26.7325L58.4707 30.125C59.2315 30.5518 59.8137 31.164 60.1368 31.8769C60.4599 32.5899 60.5079 33.3684 60.2743 34.105C60.1478 34.6851 59.7611 35.2039 59.192 35.5573C58.6229 35.9106 57.9135 36.0723 57.2065 36.0097C56.2109 35.981 55.2333 35.7818 54.3351 35.4247C53.4369 35.0675 52.6376 34.5601 51.9874 33.9344C50.5802 32.7567 48.8983 31.8292 47.0443 31.2084C45.1903 30.5877 43.2031 30.2867 41.2041 30.324V34.1145C42.6576 34.0796 44.1035 34.301 45.4462 34.764C46.7888 35.2269 47.9976 35.9209 48.9927 36.8C50.0521 37.7281 51.3243 38.4715 52.7347 38.9866C54.1452 39.5018 55.6654 39.7784 57.2065 39.8002C58.9454 39.8619 60.6545 39.4109 62.0305 38.5272C63.4065 37.6435 64.3604 36.3843 64.723 34.973C65.2047 33.4069 65.0539 31.753 64.2938 30.2647C63.5337 28.7764 62.2061 27.5357 60.5144 26.7325Z" fill="#47B1FF"/>
<path d="M20.0022 37.9781L4 41.7684L5.25665 45.4149L21.2588 41.6246L20.0022 37.9781Z" fill="#47B1FF"/>
<path d="M25.754 42.3576L12.0371 55.6251L15.5068 58.0906L29.2237 44.8232L25.754 42.3576Z" fill="#47B1FF"/>
<path d="M32.1294 46.9188L28.438 59.0746L32.8717 60.0001L36.5631 47.8442L32.1294 46.9188Z" fill="#47B1FF"/>
</g>
<defs>
<filter id="filter0_d_171_497" x="0" y="0" width="68.9995" height="68.0001" filterUnits="userSpaceOnUse" color-interpolation-filters="sRGB">
<feFlood flood-opacity="0" result="BackgroundImageFix"/>
<feColorMatrix in="SourceAlpha" type="matrix" values="0 0 0 0 0 0 0 0 0 0 0 0 0 0 0 0 0 0 127 0" result="hardAlpha"/>
<feOffset dy="4"/>
<feGaussianBlur stdDeviation="2"/>
<feComposite in2="hardAlpha" operator="out"/>
<feColorMatrix type="matrix" values="0 0 0 0 0 0 0 0 0 0 0 0 0 0 0 0 0 0 0.25 0"/>
<feBlend mode="normal" in2="BackgroundImageFix" result="effect1_dropShadow_171_497"/>
<feBlend mode="normal" in="SourceGraphic" in2="effect1_dropShadow_171_497" result="shape"/>
</filter>
</defs>
</svg>
