<svg xmlns="http://www.w3.org/2000/svg" xmlns:xlink="http://www.w3.org/1999/xlink" version="1.1" x="0px" y="0px" viewBox="0 0 100 125" enable-background="new 0 0 100 100" xml:space="preserve"><path d="M77.869,56.97c-0.3-7.158-4.61-11.81-8.779-16.309c-0.511-0.552-1.023-1.105-1.529-1.664L36.893,5.111l-3.514,3.181  l30.667,33.886c0.518,0.574,1.042,1.14,1.566,1.704c3.75,4.047,7.293,7.871,7.52,13.284c0.076,1.844-0.409,3.284-1.486,4.407  c-1.849,1.929-5.512,3.033-10.362,3.142c-1.86-4.41-6.229-7.514-11.307-7.514c-5.083,0-9.453,3.108-11.311,7.522h-8.271v4.741h7.317  h2.371h2.372c0-4.147,3.374-7.523,7.522-7.523s7.523,3.376,7.523,7.523h4.74c0-0.014,0,0.013,0,0  c4.37-0.199,9.616-1.262,12.827-4.608C77.058,62.78,78,60.126,77.869,56.97z"/><path d="M50.388,92.328h-4.739c0-2.546,0.851-3.964,1.471-4.999c0.496-0.827,0.795-1.328,0.795-2.562c0-1.23-0.3-1.731-0.795-2.557  c-0.621-1.034-1.471-2.453-1.471-4.999s0.851-3.964,1.471-4.999c0.496-0.827,0.795-1.325,0.795-2.559h4.741  c0,2.546-0.851,3.964-1.471,4.997c-0.497,0.829-0.798,1.328-0.798,2.561c0,1.233,0.301,1.732,0.798,2.56  c0.62,1.034,1.471,2.453,1.471,4.996c0,2.549-0.851,3.965-1.471,4.999C50.688,90.594,50.388,91.095,50.388,92.328z"/><text x="0" y="115" fill="#000000" font-size="5px" font-weight="bold" font-family="'Helvetica Neue', Helvetica, Arial-Unicode, Arial, Sans-serif">Created by bmijnlieff</text><text x="0" y="120" fill="#000000" font-size="5px" font-weight="bold" font-family="'Helvetica Neue', Helvetica, Arial-Unicode, Arial, Sans-serif">from the Noun Project</text></svg>