<svg height='100px' width='100px'  fill="#000000" xmlns="http://www.w3.org/2000/svg" xmlns:xlink="http://www.w3.org/1999/xlink" version="1.1" x="0px" y="0px" viewBox="-242 375.9 90 90" enable-background="new -242 375.9 90 90" xml:space="preserve"><g><path d="M-181.2,418.8c-0.2,0.3-0.4,0.5-0.6,0.6l0.7,3L-163,390l-1-0.6l-16.7,27C-180.5,417-180.6,418-181.2,418.8z"></path><path d="M-182.1,423.4l-0.8-3.4c-0.1,0-0.1,0-0.2,0l-4.3,6.7c0,0,1.3,2.3,1.9,3.4l3.5-6.3C-182,423.7-182.1,423.6-182.1,423.4z"></path><path d="M-208,391.5c-1.1-3.8-0.9-7.4-0.8-7.5c0.1-1.1-0.7-2-1.8-2.1s-2,0.7-2.1,1.8c0,0.2-0.4,4.4,1,9c1,3.2,7.8,15.6,12.9,24.5   l2.5-3.5C-201.3,404.9-207.3,394-208,391.5z"></path><path d="M-186,431.2c-0.6-1.1-1.2-2.1-1.7-3c-0.2-0.3-0.3-0.6-0.5-0.8l-2.4,2c0,0-0.1,0-0.1,0.1c-0.2,0.1-0.4,0.2-0.6,0.4   c0.8,1.4,1.7,2.9,2.5,4.5c0.3,0.5,0.6,1.1,0.8,1.6c1.6,3.2,3,6.4,3.3,8.3c0.3,1.8-0.6,5.1-3,7.8c-1.1,1.2-3.3,3.3-6.3,3.3   c0,0-0.1,0-0.1,0c-3.2,0-5-0.2-6.5-0.4c-1.7-0.2-3.1-0.3-5.6-0.1c-1.8,0.1-3.5,0.4-5,0.6c-2.8,0.4-5.1,0.7-7.6,0.2   c0.1,0,0.2,0,0.3,0c0.8-0.1,1.6-0.2,2.3-0.4c1.4-0.3,2.8-0.9,4.1-1.4c0.2,0,0.3,0,0.5,0c1.4,0.1,2.8,0.2,4.2,0.3   c0.7,0,1.4,0,2.1,0.1c0.7,0,1.4,0,2.1,0c0.7,0,1.4,0,2.1-0.1c0.7,0,1.4-0.1,2.2-0.2c0.4-0.1,0.7-0.1,1.1-0.2   c0.4-0.1,0.8-0.2,1.3-0.4c0.2-0.1,0.5-0.3,0.8-0.5c0.1-0.1,0.3-0.3,0.4-0.5c0.1-0.2,0.3-0.5,0.3-0.8c0,0,0,0,0-0.1l0-0.1l0-0.1l0,0   c0,0,0-0.1,0-0.1l0-0.1c0-0.1,0-0.3,0-0.4c0-0.3-0.1-0.5-0.2-0.7c-0.2-0.4-0.5-0.7-0.7-0.9c-0.2-0.2-0.5-0.4-0.7-0.5   c-0.2-0.1-0.4-0.2-0.6-0.3c-0.4-0.2-0.8-0.3-1.2-0.4c-0.8-0.2-1.6-0.4-2.3-0.4c-1.5-0.2-3.1-0.1-4.6,0.1c-0.8,0.1-1.5,0.3-2.2,0.5   c-0.4,0.1-0.7,0.2-1.1,0.3l-0.3,0.1l-0.3,0.1l-0.1,0.1l-0.2,0.1c-0.1,0-0.2,0.1-0.3,0.1c-0.4,0.2-0.7,0.3-1,0.5l-0.9,0.5   c-0.6,0.3-1.2,0.6-1.8,0.9c-1.2,0.6-2.4,1.1-3.6,1.4c-1.2,0.4-2.4,0.5-3.5,0.4c-0.6,0-1.1-0.2-1.6-0.3c-0.1,0-0.3-0.1-0.4-0.1l0,0   l0,0l0,0l-0.1,0l0,0c0,0,0,0,0,0l0,0c-0.1,0-0.1-0.1-0.2-0.1c-0.2-0.1-0.5-0.3-0.7-0.4c-0.4-0.3-0.7-0.7-1-1.1   c0-0.1-0.1-0.1-0.1-0.2c-0.2-3.3,1.7-7.7,5.3-12.1c0.7-0.8,0.6-2.1-0.3-2.8c-0.8-0.7-2.1-0.6-2.8,0.3c-5.1,6.2-7.3,12.4-5.8,17.2   c0.7,2.3,2.5,5.2,7.3,6.6c1.7,0.5,3.3,0.7,4.8,0.7c1.8,0,3.6-0.3,5.5-0.5c1.5-0.2,3-0.4,4.7-0.6c2.2-0.2,3.3-0.1,5,0.1   c1.5,0.1,3.4,0.3,6.8,0.4c3.4,0,6.8-1.6,9.4-4.7c2.8-3.3,4.4-7.7,3.9-11c-0.5-2.9-2.5-7.3-4.6-11.3   C-185.6,432-185.8,431.6-186,431.2z"></path><path d="M-184.2,416.7c0.6-0.9,1.5-1.3,2.2-1.3l15.8-25.1l-35.8,50.8c0,0,0,0-0.1,0.1l0.1,0.1c0.2,0,0.5,0.1,0.9,0.1   c1.2,0,2.8-0.3,4-1.5c1.1-1.1,1.6-2.8,1.6-5.1c0-0.1-0.3-3.9,4-6.4l2.5-2.2l4.3-6.9C-185,418.7-184.9,417.6-184.2,416.7z"></path><path d="M-188.9,420.6l23.5-33.3c0.2-0.3,0.1-0.7-0.2-0.9l-6.2-4.4c-0.1-0.1-0.2-0.1-0.4-0.1c-0.3,0-0.4,0.1-0.5,0.3l-23.4,33.1   L-188.9,420.6z"></path><path d="M-196.8,416.3l-13.4,19.1c-0.2,0.3-0.1,0.7,0.2,0.9l6.2,4.4c0.1,0.1,0.3,0.1,0.5,0.1c0.2,0,0.3-0.1,0.4-0.3l13.3-18.9   L-196.8,416.3z"></path></g></svg>