<svg width="68" height="62" viewBox="0 0 68 62" fill="none" xmlns="http://www.w3.org/2000/svg">
<path fill-rule="evenodd" clip-rule="evenodd" d="M36.552 44.777L38.519 39.366H67.472V42.523L66.058 46.409H57.736C57.149 50.304 55.079 52.299 48.47 51.517L44.919 61.268L35.486 61.382C36.189 50.581 44.105 47.906 36.552 44.777ZM15.092 52.272L0.556 34.664C0.2 34.311 0 33.83 0 33.328V17.318C0 7.75996 7.757 -3.8147e-05 17.318 -3.8147e-05H18.151C27.709 -3.8147e-05 35.469 7.75996 35.469 17.318V33.328C35.469 33.83 35.268 34.311 34.911 34.664L20.372 52.272C20.02 52.62 19.545 52.814 19.052 52.814H16.414C15.919 52.814 15.445 52.62 15.092 52.272ZM54.797 49.697C55.72 49.117 56.252 48.126 56.506 46.439L56.509 46.409H52.529C52.569 46.554 52.62 46.698 52.684 46.839C52.881 47.274 53.205 47.732 53.712 48.211C53.988 48.47 54 48.902 53.741 49.175C53.485 49.45 53.053 49.463 52.777 49.206C52.161 48.626 51.721 48.026 51.439 47.401C51.291 47.07 51.189 46.741 51.129 46.409L50.381 46.411L48.979 50.262C52.086 50.643 53.803 50.319 54.797 49.697ZM24.352 33.863V32.184C24.352 30.563 23.035 29.245 21.413 29.245H15.077C13.455 29.245 12.138 30.563 12.138 32.184V33.863C12.138 35.485 13.455 36.802 15.077 36.802H21.413C23.035 36.802 24.352 35.485 24.352 33.863ZM15.307 19.065H6.49C6.49 21.496 8.467 23.473 10.898 23.473C13.331 23.473 15.307 21.496 15.307 19.065ZM28.979 19.065H20.162C20.162 21.496 22.138 23.473 24.57 23.473C27.002 23.473 28.979 21.496 28.979 19.065Z" fill="#47B1FF"/>
</svg>
