<svg width="40" height="40" viewBox="0 0 40 40" fill="none" xmlns="http://www.w3.org/2000/svg">
<g opacity="0.8">
<path d="M12.46 11.8066C13.8147 13.2122 15.4389 14.3302 17.2356 15.0937C19.0323 15.8571 20.9645 16.2504 22.9166 16.25C24.8938 16.2505 26.8503 15.8479 28.6666 15.0666" stroke="white" stroke-width="3" stroke-linecap="round" stroke-linejoin="round"/>
<path d="M20 25C24.8325 25 28.75 21.0825 28.75 16.25C28.75 11.4175 24.8325 7.5 20 7.5C15.1675 7.5 11.25 11.4175 11.25 16.25C11.25 21.0825 15.1675 25 20 25Z" stroke="white" stroke-width="3" stroke-linecap="round" stroke-linejoin="round"/>
<path d="M31.5216 34.7933C30.012 33.2742 28.2168 32.0686 26.2395 31.246C24.2621 30.4233 22.1416 29.9998 19.9999 29.9998C17.8583 29.9998 15.7378 30.4233 13.7604 31.246C11.7831 32.0686 9.98791 33.2742 8.47827 34.7933" stroke="white" stroke-width="3" stroke-linecap="round" stroke-linejoin="round"/>
</g>
</svg>
