<svg width="23" height="23" viewBox="0 0 23 23" fill="none" xmlns="http://www.w3.org/2000/svg">
<path d="M8.85596 11.9251V11.0597C10.3988 9.99283 16.6134 5.36729 16.6134 0H14.8896C14.8896 5.2944 7.53892 10.1072 7.46479 10.155L7.13208 10.3694V12.3624L7.27689 12.5425C8.10947 13.5699 9.24735 14.4021 10.5808 14.9589C11.9142 15.5156 13.3982 15.7781 14.8896 15.721V14.2918C13.7254 14.347 12.5631 14.1593 11.509 13.7458C10.4549 13.3324 9.54276 12.7064 8.85596 11.9251Z" fill="#FF4778"/>
<path d="M21.3084 10.0793L20.5378 11.3585C20.8247 11.5194 21.0442 11.7502 21.166 12.019C21.2879 12.2878 21.306 12.5814 21.2179 12.8591C21.1702 13.0778 21.0244 13.2734 20.8098 13.4067C20.5952 13.5399 20.3278 13.6009 20.0612 13.5773C19.6858 13.5665 19.3172 13.4914 18.9785 13.3567C18.6399 13.222 18.3385 13.0307 18.0934 12.7948C17.5628 12.3508 16.9286 12.001 16.2296 11.767C15.5306 11.5329 14.7813 11.4195 14.0276 11.4335V12.8627C14.5756 12.8495 15.1208 12.933 15.627 13.1076C16.1333 13.2821 16.5891 13.5438 16.9642 13.8752C17.3637 14.2252 17.8434 14.5055 18.3751 14.6997C18.9069 14.8939 19.4801 14.9982 20.0612 15.0064C20.7168 15.0297 21.3612 14.8597 21.88 14.5265C22.3989 14.1933 22.7585 13.7185 22.8952 13.1864C23.0769 12.5959 23.02 11.9723 22.7334 11.4112C22.4468 10.85 21.9463 10.3822 21.3084 10.0793Z" fill="#FF4778"/>
<path d="M6.03351 14.3194L0 15.7485L0.473813 17.1234L6.50733 15.6943L6.03351 14.3194Z" fill="#FF4778"/>
<path d="M8.20215 15.9707L3.03027 20.9731L4.3385 21.9027L9.51037 16.9003L8.20215 15.9707Z" fill="#FF4778"/>
<path d="M10.6059 17.6905L9.21411 22.2737L10.8858 22.6227L12.2776 18.0394L10.6059 17.6905Z" fill="#FF4778"/>
</svg>
