<svg width="61" height="61" viewBox="0 0 61 61" fill="none" xmlns="http://www.w3.org/2000/svg">
<path d="M23.4876 32.3717V30.0579C27.5797 27.2052 44.0621 14.8371 44.0621 0.485718H39.49C39.49 14.6422 19.9945 27.5109 19.7979 27.6389L18.9155 28.2121V33.5411L19.2996 34.0226C21.5078 36.7698 24.5257 38.995 28.0622 40.4836C31.5987 41.9723 35.5345 42.6741 39.49 42.5215V38.7C36.4023 38.8477 33.3196 38.3457 30.524 37.2402C27.7284 36.1346 25.3092 34.4608 23.4876 32.3717V32.3717Z" fill="#FF4778"/>
<path d="M56.5144 27.4365L54.4707 30.8567C55.2315 31.287 55.8137 31.9042 56.1368 32.623C56.4599 33.3417 56.5079 34.1266 56.2743 34.8692C56.1478 35.454 55.7611 35.9771 55.192 36.3334C54.6229 36.6896 53.9135 36.8526 53.2065 36.7895C52.2109 36.7606 51.2333 36.5598 50.3351 36.1997C49.4369 35.8396 48.6376 35.3281 47.9874 34.6973C46.5802 33.51 44.8983 32.5748 43.0443 31.949C41.1903 31.3232 39.2031 31.0198 37.2041 31.0573V34.8788C38.6576 34.8436 40.1035 35.0668 41.4462 35.5336C42.7888 36.0003 43.9976 36.7 44.9927 37.5863C46.0521 38.5219 47.3243 39.2713 48.7347 39.7907C50.1452 40.3101 51.6654 40.5889 53.2065 40.6109C54.9454 40.6731 56.6545 40.2184 58.0305 39.3275C59.4065 38.4366 60.3604 37.1672 60.723 35.7443C61.2047 34.1654 61.054 32.4981 60.2938 30.9976C59.5337 29.4971 58.2061 28.2463 56.5144 27.4365V27.4365Z" fill="#FF4778"/>
<path d="M16.0022 38.7738L0 42.5951L1.25665 46.2713L17.2588 42.4501L16.0022 38.7738Z" fill="#FF4778"/>
<path d="M21.754 43.1892L8.03711 56.5649L11.5068 59.0506L25.2237 45.6749L21.754 43.1892Z" fill="#FF4778"/>
<path d="M28.1294 47.7875L24.438 60.0426L28.8717 60.9756L32.5631 48.7205L28.1294 47.7875Z" fill="#FF4778"/>
</svg>
