<svg width="24" height="24" viewBox="0 0 24 24" fill="none" xmlns="http://www.w3.org/2000/svg">
<path d="M14.925 14.3519C14.925 14.2217 14.8855 14.0969 14.8152 14.0049C14.7448 13.9129 14.6495 13.8611 14.55 13.8611C13.4931 13.8577 12.4652 14.313 11.6272 15.1557C10.7892 15.9985 10.1884 17.181 9.91875 18.5183C9.53415 18.3864 9.1388 18.3155 8.74125 18.3073L8.52375 17.4632C8.46919 17.2511 8.38312 17.0552 8.2705 16.8867C8.15788 16.7183 8.02092 16.5807 7.8675 16.4817C7.67346 16.3494 7.45607 16.2867 7.2375 16.3002L6.9525 15.1665C6.91929 15.0444 6.85242 14.9429 6.765 14.8819C6.71926 14.8569 6.67019 14.8441 6.62062 14.8441C6.57106 14.8441 6.52199 14.8569 6.47625 14.8819L6.1875 15.0046L6.0825 14.5138L6.36375 14.4059C6.41102 14.3878 6.45512 14.3578 6.49352 14.3174C6.53192 14.2771 6.56387 14.2272 6.58755 14.1707C6.61123 14.1142 6.62617 14.0522 6.63153 13.9881C6.63688 13.924 6.63254 13.8592 6.61875 13.7974C6.5909 13.6724 6.52626 13.567 6.43906 13.5045C6.35186 13.4419 6.24923 13.4272 6.15375 13.4636L5.52375 13.6943L4.1625 14.185C4.08208 14.2156 4.01181 14.2806 3.96288 14.3695C3.91394 14.4585 3.88917 14.5663 3.8925 14.6758V15.2892C3.8925 15.4194 3.93201 15.5442 4.00233 15.6362C4.07266 15.7283 4.16804 15.78 4.2675 15.78C4.36696 15.78 4.46234 15.7283 4.53266 15.6362C4.60299 15.5442 4.6425 15.4194 4.6425 15.2892V15.0193L5.3625 14.7494L5.475 15.299L5.32125 15.3628C5.27439 15.3833 5.2311 15.4157 5.19384 15.4582C5.15658 15.5006 5.1261 15.5523 5.10415 15.6102C5.08219 15.6681 5.0692 15.7311 5.06592 15.7956C5.06263 15.8602 5.06911 15.9249 5.085 15.9861L5.37 17.1295C5.1365 17.3427 4.96231 17.6495 4.8737 18.0036C4.78509 18.3577 4.78686 18.7399 4.87875 19.0925L5.18625 20.3047C5.03063 20.5157 4.88771 20.7421 4.75875 20.9819C4.70143 21.0875 4.67834 21.2184 4.69449 21.3462C4.71065 21.474 4.76475 21.5882 4.845 21.664C4.92614 21.7385 5.02652 21.768 5.1242 21.7459C5.22187 21.7238 5.3089 21.6521 5.36625 21.5463C5.88246 20.5987 6.62261 19.8998 7.47249 19.5575C8.32237 19.2151 9.23472 19.2483 10.0687 19.652C10.1224 19.6723 10.1789 19.6767 10.2341 19.6648C10.2892 19.653 10.3416 19.6251 10.3875 19.5833C10.4349 19.5468 10.4756 19.4971 10.5067 19.4377C10.5378 19.3784 10.5586 19.3108 10.5675 19.2397C10.7249 18.0078 11.2119 16.8891 11.9414 16.0837C12.671 15.2782 13.5955 14.8383 14.55 14.8426C14.6495 14.8426 14.7448 14.7909 14.8152 14.6989C14.8855 14.6069 14.925 14.4821 14.925 14.3519ZM5.59125 18.7441C5.56782 18.6527 5.55873 18.556 5.56453 18.4599C5.57033 18.3637 5.59089 18.2701 5.625 18.1846C5.69047 18.0093 5.80647 17.8751 5.9475 17.8117C5.99429 17.7915 6.03759 17.7594 6.07491 17.7173C6.11223 17.6752 6.14284 17.6239 6.165 17.5663C6.20984 17.4507 6.21793 17.3167 6.1875 17.1933L5.91375 16.148L6.375 15.9468L6.64125 16.997C6.65652 17.0588 6.681 17.116 6.71328 17.1653C6.74555 17.2145 6.78498 17.255 6.82927 17.2842C6.87357 17.3134 6.92185 17.3308 6.97132 17.3354C7.0208 17.3401 7.07048 17.3318 7.1175 17.3111C7.25825 17.2503 7.41165 17.2646 7.54437 17.351C7.67709 17.4374 7.77839 17.5888 7.82625 17.7724L7.98 18.376C7.18675 18.533 6.43632 18.9481 5.7975 19.5833L5.59125 18.7441ZM23.6625 9.14016C23.3442 9.11 23.0246 9.11 22.7062 9.14016V6.7404H23.25C23.3495 6.7404 23.4448 6.6887 23.5152 6.59666C23.5855 6.50463 23.625 6.37981 23.625 6.24965V4.12471C23.625 3.99456 23.5855 3.86973 23.5152 3.7777C23.4448 3.68567 23.3495 3.63396 23.25 3.63396H20.0812V1.98505C20.0812 1.8549 20.0417 1.73007 19.9714 1.63804C19.9011 1.54601 19.8057 1.4943 19.7062 1.4943H16.3312C16.2318 1.4943 16.1364 1.54601 16.0661 1.63804C15.9958 1.73007 15.9562 1.8549 15.9562 1.98505V3.63396H12.8025C12.703 3.63396 12.6077 3.68567 12.5373 3.7777C12.467 3.86973 12.4275 3.99456 12.4275 4.12471V6.24965C12.4275 6.37981 12.467 6.50463 12.5373 6.59666C12.6077 6.6887 12.703 6.7404 12.8025 6.7404H13.3425V10.0971C13.1362 10.1364 12.9262 10.1805 12.7237 10.2443V10.0529C12.7285 8.89334 12.5459 7.74552 12.1878 6.68481C11.8297 5.62409 11.3042 4.67446 10.6459 3.89823C9.98761 3.12199 9.21131 2.5367 8.36797 2.18077C7.52463 1.82483 6.63331 1.70629 5.7525 1.83292L5.65875 0.444104C5.65327 0.368947 5.63461 0.296458 5.60422 0.232279C5.57383 0.1681 5.53254 0.113961 5.48356 0.0740749C5.43458 0.0341885 5.37922 0.0096307 5.3218 0.00231157C5.26438 -0.00500755 5.20644 0.00510947 5.1525 0.031876L2.11875 1.50412C2.06154 1.53225 2.01045 1.57825 1.96993 1.63813C1.92941 1.698 1.90068 1.76992 1.88625 1.84764C1.87176 1.92451 1.87169 2.00483 1.88606 2.08174C1.90042 2.15865 1.92879 2.22987 1.96875 2.28932L2.685 3.33952C1.85563 4.10546 1.17888 5.12077 0.711653 6.3001C0.244424 7.47944 0.000368357 8.78833 0 10.1167L0 23.5093C0 23.6394 0.0395088 23.7642 0.109835 23.8563C0.180161 23.9483 0.275544 24 0.375 24H23.625C23.7245 24 23.8198 23.9483 23.8902 23.8563C23.9605 23.7642 24 23.6394 24 23.5093V9.6309C24.0005 9.50882 23.9661 9.39089 23.9037 9.30015C23.8413 9.20941 23.7553 9.15236 23.6625 9.14016ZM14.9062 6.7404C15.0057 6.7404 15.1011 6.6887 15.1714 6.59666C15.2417 6.50463 15.2812 6.37981 15.2812 6.24965C15.2812 6.1195 15.2417 5.99467 15.1714 5.90264C15.1011 5.81061 15.0057 5.7589 14.9062 5.7589H13.1775V4.61546H16.3425C16.3612 4.61826 16.3801 4.61826 16.3987 4.61546H17.085C17.1845 4.61546 17.2798 4.56376 17.3502 4.47172C17.4205 4.37969 17.46 4.25487 17.46 4.12471C17.46 3.99456 17.4205 3.86973 17.3502 3.7777C17.2798 3.68567 17.1845 3.63396 17.085 3.63396H16.71V2.4758H19.335V3.61924H18.0262C17.9268 3.61924 17.8314 3.67095 17.7611 3.76298C17.6908 3.85501 17.6512 3.97984 17.6512 4.10999C17.6512 4.24014 17.6908 4.36497 17.7611 4.457C17.8314 4.54903 17.9268 4.60074 18.0262 4.60074H19.65C19.6687 4.60304 19.6875 4.60304 19.7062 4.60074H22.875V5.74418H15.915C15.8155 5.74418 15.7202 5.79588 15.6498 5.88792C15.5795 5.97995 15.54 6.10477 15.54 6.23493C15.54 6.36508 15.5795 6.48991 15.6498 6.58194C15.7202 6.67397 15.8155 6.72568 15.915 6.72568H21.9562V9.22849L21.8137 9.26775L21.615 9.32173C21.5025 9.35608 21.39 9.40025 21.2812 9.43951L21.09 9.51803L20.955 9.57201V8.07033C20.955 7.94017 20.9155 7.81535 20.8452 7.72331C20.7748 7.63128 20.6795 7.57958 20.58 7.57958C20.4805 7.57958 20.3852 7.63128 20.3148 7.72331C20.2445 7.81535 20.205 7.94017 20.205 8.07033V9.93026C20.2033 9.95147 20.2033 9.97285 20.205 9.99406L20.0775 10.0726C19.7848 10.2787 19.5052 10.515 19.2412 10.7793V8.07033C19.2412 7.94017 19.2017 7.81535 19.1314 7.72331C19.0611 7.63128 18.9657 7.57958 18.8662 7.57958C18.7668 7.57958 18.6714 7.63128 18.6011 7.72331C18.5308 7.81535 18.4912 7.94017 18.4912 8.07033V11.6479C18.4162 11.7509 18.3375 11.8491 18.27 11.957C18.1162 11.7853 17.955 11.6282 17.7937 11.4663C17.745 11.4221 17.6925 11.3829 17.64 11.3436L17.5237 11.2406C17.5403 11.1858 17.5492 11.1276 17.55 11.0688V8.07033C17.55 7.94017 17.5105 7.81535 17.4402 7.72331C17.3698 7.63128 17.2745 7.57958 17.175 7.57958C17.0755 7.57958 16.9802 7.63128 16.9098 7.72331C16.8395 7.81535 16.8 7.94017 16.8 8.07033V10.7498H16.755L16.6087 10.6713C16.47 10.5928 16.3237 10.5241 16.1812 10.4603L16.0725 10.421C15.9637 10.3768 15.855 10.3278 15.7425 10.2934C15.8086 10.2037 15.8462 10.0844 15.8475 9.9597V8.07033C15.8475 7.94017 15.808 7.81535 15.7377 7.72331C15.6673 7.63128 15.572 7.57958 15.4725 7.57958C15.373 7.57958 15.2777 7.63128 15.2073 7.72331C15.137 7.81535 15.0975 7.94017 15.0975 8.07033V9.93026C15.0964 9.99094 15.1054 10.0512 15.1237 10.1069H14.9587H14.9175C14.7337 10.0775 14.5425 10.0628 14.3662 10.0529H14.2762H14.0925V6.7404H14.9062ZM23.25 23.0185H0.75V10.1167C0.755753 8.77368 1.04218 7.45828 1.57825 6.31298C2.11432 5.16768 2.87961 4.23614 3.79125 3.61924C3.83603 3.59018 3.87592 3.5497 3.90858 3.50017C3.94123 3.45065 3.96599 3.39308 3.9814 3.33085C3.99681 3.26862 4.00255 3.20299 3.9983 3.13781C3.99404 3.07263 3.97988 3.00922 3.95663 2.95132C3.93338 2.89341 3.90151 2.84217 3.86291 2.80061C3.82431 2.75905 3.77975 2.728 3.73185 2.70931C3.68395 2.69061 3.63368 2.68463 3.58399 2.69172C3.5343 2.69882 3.48619 2.71884 3.4425 2.75062L3.33 2.83405L2.89125 2.19117L4.95375 1.17041L5.01 1.99487C4.79462 2.05739 4.58184 2.13438 4.3725 2.22552C4.28472 2.2733 4.21409 2.36292 4.17489 2.47626C4.13569 2.5896 4.13084 2.71819 4.16134 2.83603C4.19183 2.95386 4.25538 3.05215 4.33913 3.111C4.42289 3.16985 4.5206 3.18487 4.6125 3.15303C5.19 2.89754 5.79539 2.76661 6.405 2.76534C7.88162 2.76664 9.29747 3.53486 10.3416 4.90127C11.3857 6.26768 11.9728 8.12055 11.9737 10.0529C11.9737 10.2002 11.9737 10.3425 11.9737 10.4701C11.9737 10.5977 11.955 10.7302 11.9475 10.8578C11.9405 10.9397 11.9493 11.0225 11.9733 11.0987C11.9972 11.175 12.0353 11.2421 12.0843 11.2939C12.1332 11.3457 12.1913 11.3806 12.2533 11.3953C12.3152 11.41 12.379 11.404 12.4387 11.378C12.8638 11.1905 13.3044 11.0702 13.7512 11.0197C13.9087 11.0197 14.0625 11.0197 14.2237 11.0197C15.6447 11.0166 17.0119 11.7302 18.0412 13.0122H18.0675C18.1039 13.0556 18.1465 13.0892 18.1928 13.1111C18.2391 13.133 18.2883 13.1427 18.3375 13.1397C18.401 13.1372 18.4629 13.1135 18.5175 13.071C18.5494 13.0489 18.5796 13.0226 18.6075 12.9925L18.6412 12.9385C19.1248 12.1127 19.7387 11.4331 20.4412 10.9461C21.0424 10.5278 21.6969 10.2567 22.3725 10.1462C22.6637 10.1023 22.9569 10.0843 23.25 10.0922V23.0185ZM7.93125 12.0994C7.96502 12.1701 8.01202 12.2284 8.06779 12.2687C8.12356 12.3091 8.18627 12.3302 8.25 12.33C8.31282 12.3304 8.37471 12.3102 8.43 12.2711C8.86139 11.9431 9.32966 11.7063 9.8175 11.5694C9.86674 11.5674 9.91522 11.5528 9.96015 11.5264C10.0051 11.4999 10.0456 11.4621 10.0794 11.4152C10.1131 11.3683 10.1395 11.3131 10.157 11.2528C10.1745 11.1925 10.1827 11.1283 10.1812 11.0639C10.1798 10.9994 10.1686 10.936 10.1484 10.8772C10.1282 10.8184 10.0993 10.7654 10.0635 10.7212C10.0276 10.677 9.98542 10.6425 9.93936 10.6196C9.8933 10.5967 9.84424 10.5859 9.795 10.5879C9.29708 10.6826 8.81591 10.892 8.37375 11.2062C8.35125 11.1719 8.32875 11.1424 8.31 11.1081L8.625 10.4406C8.76707 10.1207 8.82665 9.74942 8.79491 9.38173C8.76316 9.01404 8.64179 8.6695 8.44875 8.39913L8.9025 7.37837C8.92719 7.32249 8.94321 7.26078 8.94964 7.19678C8.95608 7.13278 8.9528 7.06774 8.94 7.0054C8.91504 6.87967 8.85301 6.77202 8.7675 6.70605L7.71375 5.90613C7.6713 5.873 7.62428 5.85117 7.57537 5.84191C7.52645 5.83264 7.47663 5.83612 7.42875 5.85215C7.3331 5.88878 7.25146 5.9711 7.2 6.0828L6.74625 7.09864C6.53571 7.03007 6.31554 7.03007 6.105 7.09864C5.93442 7.15408 5.77412 7.25392 5.63367 7.3922C5.49322 7.53047 5.37548 7.70436 5.2875 7.90347L4.81125 8.96839C4.41266 8.95567 4.01417 8.99844 3.6225 9.09599C3.53024 9.12982 3.45137 9.20858 3.40209 9.31611C3.35281 9.42363 3.33684 9.55177 3.35748 9.67421C3.37811 9.79666 3.43377 9.90412 3.51304 9.97455C3.59231 10.045 3.68917 10.073 3.78375 10.0529C3.81375 10.048 6.58875 9.27756 7.93125 12.0994ZM5.9325 8.39913C6.00835 8.23166 6.13151 8.10999 6.27536 8.0604C6.41921 8.01081 6.5722 8.03729 6.70125 8.13412C6.74395 8.16643 6.79111 8.18739 6.84001 8.19582C6.88892 8.20424 6.93861 8.19995 6.98625 8.1832C7.08232 8.15054 7.16458 8.06936 7.215 7.95745L7.6425 7.0005L8.0475 7.30967L7.62 8.29116C7.59505 8.34688 7.57875 8.40849 7.57203 8.47247C7.56531 8.53645 7.56831 8.60154 7.58085 8.664C7.59339 8.72646 7.61523 8.78506 7.64512 8.83646C7.675 8.88785 7.71234 8.93102 7.755 8.96349C7.87944 9.06076 7.97013 9.21751 8.00791 9.40064C8.0457 9.58378 8.02762 9.77896 7.9575 9.94498L7.77375 10.3621C7.16336 9.67834 6.41914 9.23132 5.625 9.07145L5.9325 8.39913ZM22.3312 17.2964H21.4987L21.2475 16.5603C21.2152 16.4678 21.1618 16.3908 21.0946 16.3398C21.0274 16.2889 20.9498 16.2664 20.8725 16.2756L20.0887 16.3934L19.7962 15.8389C19.7578 15.765 19.7046 15.7063 19.6424 15.6691C19.5803 15.6319 19.5116 15.6177 19.4437 15.6278L18.63 15.7554L18.315 15.2647C18.2726 15.2028 18.2188 15.1561 18.1587 15.1288C18.0987 15.1016 18.0344 15.0948 17.9718 15.109C17.9092 15.1232 17.8503 15.158 17.8008 15.2102C17.7513 15.2623 17.7128 15.33 17.6887 15.407L16.8412 18.165C16.4326 18.1467 16.0259 18.2447 15.649 18.4523C15.2722 18.6599 14.9343 18.9721 14.6587 19.3673C14.6202 19.4101 14.5886 19.4626 14.5659 19.5217C14.5433 19.5808 14.5299 19.6453 14.5268 19.7113C14.5236 19.7773 14.5307 19.8434 14.5476 19.9058C14.5645 19.9681 14.5908 20.0253 14.625 20.074C14.6953 20.1654 14.7903 20.2167 14.8894 20.2167C14.9884 20.2167 15.0835 20.1654 15.1537 20.074C15.3599 19.7678 15.6157 19.5256 15.9024 19.3652C16.1892 19.2047 16.4996 19.13 16.8112 19.1465C17.8237 19.2888 18.5475 20.6776 18.555 20.6875C18.604 20.7841 18.6777 20.8548 18.7628 20.8872C18.8479 20.9195 18.939 20.9113 19.02 20.8641C20.8462 19.7796 21.6675 21.3892 21.7012 21.4628C21.7355 21.5326 21.7827 21.59 21.8384 21.6294C21.8941 21.6689 21.9566 21.6893 22.02 21.6886C22.0902 21.6889 22.1591 21.6634 22.2187 21.615C22.3024 21.5462 22.3619 21.437 22.3844 21.3111C22.4068 21.1852 22.3904 21.0528 22.3387 20.9426C22.2143 20.7073 22.0653 20.4959 21.8962 20.3145L22.6462 17.954C22.6704 17.8794 22.68 17.7982 22.6744 17.7175C22.6687 17.6368 22.6478 17.5593 22.6136 17.4917C22.5795 17.4242 22.5331 17.3688 22.4786 17.3304C22.4241 17.292 22.3631 17.2719 22.3012 17.2718L22.3312 17.2964ZM19.0012 19.8434C18.6179 19.2255 18.1266 18.7374 17.5687 18.4202L18.1462 16.5357L18.1875 16.5946C18.2278 16.6542 18.2785 16.7001 18.3354 16.7283C18.3922 16.7565 18.4534 16.7662 18.5137 16.7566L19.2975 16.6388L19.59 17.1933C19.6285 17.2672 19.6817 17.3259 19.7438 17.3631C19.8059 17.4003 19.8746 17.4145 19.9425 17.4043L20.6925 17.2915L20.9287 17.9883C20.9586 18.0752 21.0071 18.1488 21.0683 18.2002C21.1296 18.2517 21.201 18.2786 21.2737 18.2779H21.75L21.2512 19.8139C20.8937 19.6221 20.5104 19.5258 20.124 19.5309C19.7375 19.5359 19.3558 19.6422 19.0012 19.8434ZM6.96 4.13944C6.98393 4.01324 7.04516 3.90463 7.13024 3.83746C7.21531 3.77029 7.31728 3.75005 7.41375 3.78119C8.5125 4.13943 10.0387 5.14056 10.9875 7.87403C11.0083 7.93265 11.02 7.99607 11.0221 8.06065C11.0241 8.12522 11.0163 8.18969 10.9992 8.25033C10.9822 8.31098 10.9561 8.36662 10.9226 8.41405C10.889 8.46148 10.8486 8.49977 10.8037 8.52672C10.7543 8.5562 10.7006 8.57127 10.6462 8.57089C10.5752 8.57019 10.5057 8.54306 10.4459 8.49266C10.3862 8.44227 10.3386 8.37068 10.3087 8.28625C9.63 6.37234 8.595 5.17982 7.23375 4.73324C7.18519 4.7178 7.13948 4.68982 7.09931 4.65094C7.05913 4.61206 7.0253 4.56306 6.99979 4.50683C6.97429 4.4506 6.95763 4.38826 6.9508 4.32348C6.94397 4.2587 6.94709 4.19279 6.96 4.12962V4.13944ZM5.04 4.23268C5.03014 4.16952 5.02988 4.10444 5.03925 4.04115C5.04861 3.97786 5.06742 3.91761 5.09458 3.86384C5.12174 3.81006 5.15673 3.76381 5.19756 3.72774C5.23838 3.69167 5.28423 3.66647 5.3325 3.6536C5.52813 3.60719 5.72623 3.58094 5.925 3.57507C6.02445 3.57507 6.11984 3.62678 6.19016 3.71881C6.26049 3.81084 6.3 3.93567 6.3 4.06582C6.3 4.19598 6.26049 4.3208 6.19016 4.41283C6.11984 4.50487 6.02445 4.55657 5.925 4.55657C5.76671 4.56327 5.6089 4.58294 5.4525 4.61546H5.38125C5.29938 4.60791 5.22166 4.56542 5.16001 4.4945C5.09837 4.42358 5.05621 4.32816 5.04 4.22286V4.23268ZM4.815 22.0812C4.83389 22.142 4.84406 22.2069 4.845 22.2726C4.84359 22.402 4.80315 22.5255 4.7325 22.6161C4.66224 22.7075 4.56719 22.7588 4.46812 22.7588C4.36905 22.7588 4.27401 22.7075 4.20375 22.6161C4.13447 22.5247 4.09541 22.4013 4.095 22.2726C4.09457 22.2072 4.10347 22.1423 4.12125 22.0812C4.14064 22.0223 4.16867 21.9689 4.20375 21.9241C4.2206 21.9016 4.23949 21.8818 4.26 21.8652L4.32375 21.8162L4.395 21.7916C4.46775 21.7714 4.54346 21.7799 4.6125 21.8162C4.65668 21.8435 4.6972 21.8799 4.7325 21.9241C4.76779 21.9649 4.79593 22.0151 4.815 22.0714V22.0812Z" fill="#FF4778"/>
</svg>
