<svg width="24" height="25" viewBox="0 0 24 25" fill="none" xmlns="http://www.w3.org/2000/svg">
<path fill-rule="evenodd" clip-rule="evenodd" d="M13.0017 18.3906L13.7013 16.2749H24V17.5093L23.497 19.0287H20.5369C20.3281 20.5516 19.5918 21.3317 17.2409 21.0259L15.9778 24.8385L12.6225 24.8831C12.8725 20.6599 15.6883 19.614 13.0017 18.3906ZM5.36827 21.3211L0.197771 14.4365C0.0711405 14.2985 0 14.1104 0 13.9141V7.65429C0 3.91717 2.75919 0.883056 6.16007 0.883056H6.45637C9.85618 0.883056 12.6164 3.91717 12.6164 7.65429V13.9141C12.6164 14.1104 12.5449 14.2985 12.418 14.4365L7.24638 21.3211C7.12118 21.4572 6.95222 21.533 6.77686 21.533H5.83851C5.66244 21.533 5.49383 21.4572 5.36827 21.3211ZM19.4915 20.3143C19.8198 20.0875 20.009 19.7 20.0994 19.0404L20.1004 19.0287H18.6847C18.699 19.0854 18.7171 19.1417 18.7399 19.1968C18.8099 19.3669 18.9252 19.546 19.1055 19.7333C19.2037 19.8345 19.208 20.0034 19.1158 20.1102C19.0248 20.2177 18.8711 20.2228 18.7729 20.1223C18.5538 19.8955 18.3973 19.6609 18.297 19.4166C18.2444 19.2871 18.2081 19.1585 18.1867 19.0287L17.9207 19.0295L17.422 20.5352C18.5272 20.6842 19.1379 20.5575 19.4915 20.3143ZM8.66208 14.1233V13.4668C8.66208 12.833 8.19362 12.3177 7.61667 12.3177H5.36294C4.78599 12.3177 4.31753 12.833 4.31753 13.4668V14.1233C4.31753 14.7575 4.78599 15.2724 5.36294 15.2724H7.61667C8.19362 15.2724 8.66208 14.7575 8.66208 14.1233ZM5.44475 8.33736H2.30851C2.30851 9.28786 3.01174 10.0609 3.87645 10.0609C4.74188 10.0609 5.44475 9.28786 5.44475 8.33736ZM10.3079 8.33736H7.17169C7.17169 9.28786 7.87456 10.0609 8.73963 10.0609C9.6047 10.0609 10.3079 9.28786 10.3079 8.33736Z" fill="#FF4778"/>
</svg>
